<mxfile host="Electron" modified="2024-03-07T20:00:06.868Z" agent="Mozilla/5.0 (Windows NT 10.0; Win64; x64) AppleWebKit/537.36 (KHTML, like Gecko) draw.io/23.1.5 Chrome/120.0.6099.109 Electron/28.1.0 Safari/537.36" etag="mMUu_UHpYoPD6sQS6bSf" version="23.1.5" type="device">
  <diagram name="Page-1" id="oG0zzZ2mCBNzJr2zlAs1">
    <mxGraphModel dx="1876" dy="2396" grid="1" gridSize="10" guides="1" tooltips="1" connect="1" arrows="1" fold="1" page="1" pageScale="1" pageWidth="850" pageHeight="1100" math="0" shadow="0">
      <root>
        <mxCell id="0" />
        <mxCell id="1" parent="0" />
        <mxCell id="d3MNBODYQ0l3beVv2zK8-2" value="" style="shape=image;verticalLabelPosition=bottom;labelBackgroundColor=default;verticalAlign=top;aspect=fixed;imageAspect=0;image=data:image/png,iVBORw0KGgoAAAANSUhEUgAAAMUAAACFCAYAAADrYDycAAAAAXNSR0IArs4c6QAAAARnQU1BAACxjwv8YQUAAAAJcEhZcwAADsMAAA7DAcdvqGQAABYASURBVHhe7Z0JXFVl+scfFllUBBUVrMylxNxCG2lcyvzXaGnNjFZmi5U6ZCZpRpKK1sdJ01QyHftXMpl+TG0c/9o/0ynLiQxxSY3cGkwFyQUEBFzYZJn7ezkvXg73Xu5yzrkXfb6fD597OCD3eM/7e5/lfZ/neFWZIIZhavBWXhmGUWBRMIwKFgXDqGBRMIwKFgXDqGBRMIwKFgXDqGBRMIwKFgXDqGBRMIwKFgXDqGBRMIwKFgXDqGBRMIwKFgVTw8aNG+n+B+6n5JRk5cyNCYuCqWH33t2Ul5tHo58eTaNHj6YTJ08oP7mxYFEwNfj7+5OPtw+Fh4dTWloa9e/bn+KmxVHhxULlN24MWBSMRXx9faljp460fdt2irg9ghI/TlR+cv3DomBs4h/gL8SxOGExde3albZs2aL85PqFRcHYRUhIiPiaNGkSDXt4GB08eFD5yfUHi4JxiDZt2lDO+Ry6++67r1thsCgYh0G8ERERQUlJScqZ6wsWBcOoYFEwjAoWBcOoYFEwjAoWBcOoYFEwjAoWBcOoYFEwjAoWBcOoYFEwjAoWBcOoYFEwjAoWBcOoYFEwjAoWBcOoYFEwjAq3iwKdIma9OYsCAwMbVJnjb7mnaOXO9+mT7xIbVLcL1Fijv1NDumY0TRg5cqS4biNwqyhWr1lN3bp2o83/v5l69eolyhwH/2EwxUyOoazsc8pveRYYTBDD3B2xlJZziPZlJ1H0p8/RP3etU37DM0GDs379+oka65kzZ1LvXr0NG2TOAgGjWcL7f3ufMjIyaOrUqaJZm94Tp1tEgRuE/9y8ufOoXbt21LhxY3FetlXZ9cMuiuzZy+PaquxI/4reSZlCxwsOUqhfS3GuWUAQhYeE0pajn1P0itH0c/pP4ryngIZmY8eOpVEjR1F5ebmosUYDArxikJlb59LSUvLx9RHH7gTXg+uCgHGtGB8YG7jmSxcv0dChQ8XEqZe186oyoRzrDmb/qa/FUXJyMrVq1Ur8R21RVFQkXufOnUvDhg0Tx+7gyLlUWvPzUnHsXdGISPnEKsq9xGt5eRVdvFRClVWVVFhyibqFdaPxg2IorHm4+Lm7mL9gPr2X8B61u7Wd1c8aQsnLy6Mud3ShrLNZoqWNPeDeQGwYuFqBQR4/K54+/7/PqW3btjbHR2lJKZ05c4ZmxM/Q9BqAYaKw5wZZIzs7W9y0pUuXUqeOnZSz+pOVf44+PbyYsstOUaOrTaoFASyIorLCJIwrxeTt5V0jjoGdBtHEIZPF7xgJ3CIMlNDQ0BorXB8QhyP3RWtRwCuYFDOJut7R1W5hAlxHWVkZLf/7chrQb4By1jV0FwVuUGxsLAUHB9t9gyyBm5Z5KpOeHfMsxc+Ip+BmwcpP9GHdwQ8p6ex6CvEJN31IPuRd6VtLFFIQQIriclGpcqYaiONqVRk9FxVNg3o8oJzVD7gdU16dQufOnhNuh55oJQq40jEvxYiB7co1nzt3jvr06UPz5s9zeeLULabADULcgKAOvUldEQTALCbbOCI41yveQNww/qv/oQN526lZo1bK2br4+NaeS7x9vKhp4+oZDmIAsBr+3gG0aq9pFlw9Xrd4A24pfGz42vC59RaEFiDWQUYJzZwxNly9ZowxBOPof4tspivxhuai0PsGwbQiOEcbR2RTtGobj7jh9W+epjVpC6iZf3UQ7SzShZIEBwaRl08FLf73fFq4+W3hlmkFXEokJZCcwOfiqGtqNBisGLQYvBjEGMxaISdOZDORXUN20xk0dZ9wg96e+7ZTcYOzIN646667nDabuEmJP8+lX6/sqyuGSm/hNllyn4B5TAHgQpVXVFJJ6VXxvZoA/+p/X1BWSA9HjKDH+z4pvncGpCvj4+PFsatW2BmccZ8wSN+Y+YbLrrS9FBQUUHjbcFr87mLq2bOncrZ+NLEUMp+8YsUKoVQjZyuk6Zw1m4gb4lKGU3Z5usvWQeLr410z+NVIsYT4BVNy+nZ6/uMnaHdaijhnL3A7ZLoSA8sdgnAUuUaCFLwWrrS9wEuRKVwI2N61L5dFAd9+3Nhx4gLcdYPMzeZDDz6knLUOhPPkJ8NEIK2VGCSwFBK4UOZulBq4VR8mL6HZG6tn/PqQbgcWOTEZNARwzY8Nf0wkStwR62BswK08fPgwdWjf0S5322VR7EjaIdwlTwCizMzMrHdG2HZkK124cFVklvRCWgt1fKF2rVo2DaYvf/mafj17TDljGdzMxA8TDbfEroDJZ9GCRR5xzXj/Hj160Iq/r1DOWEe37JO7aNTIsuuiJjiwMWVnlivf6QuEYY3ciwXKkW0K8wupRcsWyncNh5YttbXERuARokDQhjwzAiOYWSMorbxCVZVVdClfszxDHaSVULtQ5tYiy05RaAVWgvF5NyRwvUioGDU23CoK3KCTJ07SxJcn0q7dKWJVMqhZkBCHEXh5e1FJvnF7fdTiKLhyUTnSHwwofNZDH6kOOnFs1CBzFjlZxk6NpU2bNlH79u2FOPTGLaKQN6jvPX0p7dc0ih4XTWFtwsUy/fZvt9OcOXPEf17vGa3Kp1J3a2GOeXwBa2GUlcBniQG1c9dOemv2WyJzlXrwJ+revbsYdJ4mDjk+HvnTI5T6c6pY4ENKdf369SLtj3Gh58RpuChgHVq1bkXbvtlGy5Yss7hdY8SIEXTgpwPiQ8FN05VGVbpbC2z1kG6UjC/yi/WvZ8DAweeNgYQBZb6Og0kIKXSsHSAINco614dawOrxgY2hqampNCV2im7WzlBR4D/Q6bZOtOXLLfUupuDDwIeSkJBgyA3T21qUVVzbFwVxFBbrawUxm2Lg7D+w3+YOY1jnlJQUmh4/XXfLXB+4zwsXLqwjYKzlqHcCwLuAl4EJ1h5h4HcOHTpEY/8yVjljHUNFcfnyZRo1apTynX1g/9TFi/r63nCjhLWoNObjwA5aPcEA6Ny5sxg49gIXZcDAAbrMvPaCeg54CRJUN05dO4k+3vkBHc9No9c3TBaVjhJMnEMGDxGbCW0hrc/hI4ft2klruPvkqUAYF7KsL7S5SvHVMmEtjLAS1wOwCrHrJ1Op6TMLbNSY/H0DKDigOe3OSBZCsQdYHoh81epVdayPLW5YUTRu4qccXaOixPRx6GQtAhv5CWHASvj71H1vT6GivEI5cj/4zNRAHE0DgpTvLIM4Cou4cB/37t3rcJ0FWwozYC2O/XJB+U5bkP41B8KQ4vD2cn8J6PUArILMau7b/6ND7qM5LovC3hXkhkBx0VUqKfXSNeguKav22QP8qrc9eLLV8FQuW4jJEDdgjUtmNZFdc5Yb0lIENK4Wsq/pBV8S6eunp+sX2EMMpRXXAkMpDqY2qG+/77Y/mNzNfOWMyS0qLzG5oEX06F3XkjW9f9eb0tLSRNYKa1yObBG3BrtPJiCMrLza6wZaWwssEpoDi+GJgnBnN4/KytqJjjGDoumdx5ZQyyahlHUpmx7o8iAljl1Nv4/op/xGdUq5uLi4VtbKVVgUJsot1ARpbS3UMYW5tQhr1kw50gYsxh07dsyhyjPUxCR/n+zW3azo8KJuiAeL8eaIuZT4zCqXirIcgUVhQm0lJKczLytHdTFvXGAPaksBZHyhB9hGj6IerPPYqiEw77HkrnoYCQSJWhHZ18m8BEDvRhXm3PCiyM23vlqOmgtrqBsXOIO5tdADWXmGRmjqyjPUOmDgoSOjJxUtQRgoCpIN8bBFxWhuWFEEBweKV2SbbJF5Wt8tJnov5MlBhsozOchQLYmOKBh4nlq0hAYVuDbsz4qMjBTunVHc0JbClpWQ2LIWjqCOKYwGA18OMvRmhVAcaTrmLuDS4QvunTre0IsGIYryq9r73oWFxfVaCckvx1zfqWspppCcLbyWdtQbOciMQqt7B/dONuCOmxbnUIMKRzFMFFhtTE9Ppzsj71TO2AcCrG49umm6gzMsOJxS0u2fcewVD0A3D0c5X5pNQYG2ty4ENw/WfWOkI2ATXmCTahfUGrh3vo18NdtkKK0dGuJF3B6hW0M8Q0QhVxv37NnjVG8mtN5EbYVW++f7tO9Pix5aQBdKLlBBqX0zzv4jp5Uj25h38zDHkvuE98bXF2O+qLcZM/Lxf370z2JPj1aDzFlwPzt07EAjHx+pnLHO9zu+F4NZy+3/Mt5AQ7yoqCjN4w1dRYHZHR+gq6uNsrYChSdalSQi5/3ty9tpaJcHhDjsIf+S9RSto+A9Xxv0Cu2ZsYfu7NBLOWsbbF/YunWr5oPMXmTFG4J11MTYkybFJIh6DVRTomBMS4uP7Bo+C8QbaMGJnlhaoIso5MasUU+NohMnTmi22ogPGFuAsRUY7+HqwMBNxcLQ2jFrqV3zNvWK4/iZHOXIcWRMkZ5/mvp16CME6cxiFCYWWRSEycGIwiB5P5HWPXr0qFOPRcAYgPuMMaF1xZx5Qzwt4g1NRYH/KMw7an9RAzwtbpryE22BK4EtwdgajPfDVmFXuL1tZ7F9YMEf54vvbblUv+WYhONEIqmgNJ+aBwYLAUKI9syytkBRkCzZ1XqQSeT9jOobJe4nZmRXwZiQ9eFauoIy3lj76VpalLBIOescmokCszbihs/WfybSfq7sUrQXbA0+cvSI6FAhB8bVq86nUNEu/+vYbfRi379YtRpi9duBdTvUZxeVltIrA1+nj8asEgLUCnO3MiIiQtN6dvP76equUzWyPhx/G++hhTssBTx48GCa+NJLylnncLnBMtoiogvcmjVrNN2U5SjwJ6dPm06bN28WG8RcBZVfH323THTvaxFQuwlZeEhzurlNiNUGy6DIZL3KvEvovlsHi41tRoDtHK4+6wHuWGFhoaiNN+p+IpGCR40FBQU5lS6GqNp3aO9wI2VrGPp4r4YI2lnGrn+VsotyKMT/msvT22SqJWpRoKt4l5ZdacyAF93yiC+kKmfNmEU33XST3Qt0YqY9lUnRL0bTa7GvuezeOYOjT7uCgDEBIJGj5ePfWBR28nXqVnpj62xxDHGg7WantmHie/kko5KqKxTg1YSejZpgd0ZJzXeHvqWM3HRqH9rBpacfIdjE8+M2fLah3mfe5eTkaPYUIFfB/qwZ0+Np27ZtVp97BzHk5ubSm7PfdLq6zhYsCgd5/+sltHLfalFCem/nSNNN8xKiKCq/TH/s8jQNiRyq/KZjoI3LJykf1fSGkq9j+o2vVT/gKNgWgXTo/v3762z6Q9wAN2vBogUO1zHrDa4bjyrLSM+ouW6jrBmLwgkQbyT8ax4lpadQVKcI6nNLPxre4xmnbhLauKzYsZxOF2SKrhWoLpOCQJE+Ks1uDmlHY+99gW4JvVX5V46DBS747cDPz4+yzmXRwncXiiyWJyPjjSuXr9DQYUMpfma87taMReECiDewPcOZuAHuzae7VtLezJ2idYs4V5JPD3cfToO7DRWPC/jy8KZaP4tq15+e6fu8SzMkCo9KSkrEarQ74gZngVtlREYTsCjcAOKTtT+upADfQGENMOC7h0XS6AFjagkMFml18id0OCtViANWpKS8mJ7q87zTbhpTPywKA8HTUf836T3hHsFVgmsUYhrsz/QdYzMwh0VanrSMCkzikf8Or+MGvOh0QM9Yh0VhAHLN42TerzUzPoTxVJ/nHMowITO19sdVNfEGLEzHlrfT+EExbkn9Xq+wKHQGvU+Tjn9TKzZA6xZXFvT0+JvMNVgUOqGe1WUWSatZ3RXrAzeusX8TTbecXE+wKDQGA+7j5A9r/H69/X9LcQpeX74/ts6gR2xy8vxx+n3H/lRcUUT/Sv2SrYsFWBQa8s9d62rSqEZniixltNTvjd/p2Po2Sk77nnIv59DUR2aIc5zJqo0hlXc3Alh3kILAbN2zbW9a+kSiYQMO74P3w/vi/XEdEImsLcAiYdebu4ljENq0lXLEqGFRaERG3kny8/EXFuKx3k/SxCGTDV8cw/vhffH+uA5cD64LNPMLoTN5Z6io9AoNiBhIRWXVxUkXDXjMWEODRaEx8O2DA+vftg3/Hl/WqsQQK8Adw14r+YWsE9wdzPq2wPvjOsyBYAqLC2oC7EejRoq/j9VzpjYcU2gEBvGy794Vx+P6T7C5iQ9iiP88ThyP6/dCLRdLvTHQEohVWjcJo9iHplvMZOFv4JFYIGbQq7UCfFxnVmF1MRIC7oa01cMo2FK4ieCAIFGeag7SuB/seE8EyhAEBj++AESCY2GJEMhXlNKkdRPqtRpqIBCIEF8sCMuwKDyIlbuX1wTqaDuPNvSroteLMlbUkOM47sFZojU9YoawoDa0dFuC8q8ZrWBReAhwaxAYg86t7iB0+rDkGiEeQOMDWBNw/kqWWMhjtINF4WHAAtiTLh3W40/iQSZ4uGTG+XTlLKMFLAoPoUVQC/FIYVgAPBYXmSFb8YJYl3jyA/HlSmUeUxcWhYeAqjpklGApIIxv//MV/fWLmfRc4kiatHo8Ldz8thAKMktSLHCveHes9rAoPIiFTy2l20IjxBYNgD1MCLzBbwWnhFCQapViwbqFtXUOxnlYFB4G9iPNGb6QRvR6gm4Jqa7JhkjwJRfkkK6FWOBmTfpHNAfaGsOi8EDgSiFmgECWjv5IpGKRnkU6FguD2N8EkcDNwgZAlKwy2sGi8BAQL8AdwqslEDsgHYugGvubYE2wngFhoIab0Q4WhYfww/Gk6qzTT/+wK06ANUG2itEeFoWHENG6q3jF1o+N+9eLY1uYL/bJYJzRBhaFh4Bdq/nFhcIdSknfIVKwSL9i8yACaXwhFSt3z2Lzoay0Gx75uPJXGC1gUXgIiBkm3BMjVqmRXUIKFunXBV+9RbM2xdHrGyaLVCzEgNQsBIFgO/Km37nUc5apC4vCg8DgThi5pNZaBYBIkGWSW8nlztkJ974igm5GW7ieQiMcraeABcAgx3qEeT2FOfi9vEu5VFxWZAqqy0wxhB+1aNqS2oSE2VzJtlVPwdQPWwqNkHuX4Nas3btK1Ea4ikzBwoJAOHjFAK9PEHh/XAeuBwJiHINFoRFIkaIfLAJfgJ5PszfGi9leDeqkAVaoMftrAd4H7yctBK4DDZl5b5TjsPukMcgMoauHeasZDE5klzBAkUVCG39UzmHguureYE3DvHs5NhQi5kD3cmeevsqwKHQBA1/dLRxWAe4M1hbg2gCIAhV1zmKte/kLAydyqakLsCh0BC6N7BaOoBoDFwIBmM1nDptTp4ufPSCoR1dAgL8JcaF7+Qv3xTj195jasCgMAIP4QMY+0ZUP4Hl293S5z2F/HxYI/WPVTz1ytHs5YxsWhZuR+5zqc3e407hxsCjcBGb9H/6TJIJyYK3nLOKGDQfW1bhfEAM/k0JfWBRuAvHG37YniHgArpB8ld3J6/s5ox8sCjejtgRqEcgUKz/nzjhYFB4CesVirUGmV6UYtHgiKuMYLAoPAlvDP9u1hs5fyqLWQWE0qu/TLj07m3EOFgXDqOC9TwyjgkXBMCpYFAyjgkXBMCpYFAyjgkXBMCpYFAyjgkXBMCpYFAyjgkXBMCpYFAxTC6L/Av5/e13SYFXSAAAAAElFTkSuQmCC;" vertex="1" parent="1">
          <mxGeometry x="160" y="10" width="88.87" height="60" as="geometry" />
        </mxCell>
        <mxCell id="d3MNBODYQ0l3beVv2zK8-1" value="" style="shape=image;verticalLabelPosition=bottom;labelBackgroundColor=default;verticalAlign=top;aspect=fixed;imageAspect=0;image=data:image/png,iVBORw0KGgoAAAANSUhEUgAAAJQAAACeCAYAAADUpyOyAAAAAXNSR0IArs4c6QAAAARnQU1BAACxjwv8YQUAAAAJcEhZcwAADsMAAA7DAcdvqGQAABtASURBVHhe7Z0LdFTVuce/zEyek2TyDq8QHgZCIUYpxfoID8GiXC0PDYoIrUBpsS58tPXWu6TXLqysW+uieNWrXtFqpD7KAhUf1dKqiOBFLi0lFgoXEbCUAAFC3o+Z3P3f5xzymsycvefMzDln5seaMPtkZjJz5n++/e1v7/19Cc3NzZ0UJ45BxAXVDw3/d5jatnxI51raqeD6ayj9ouHqb+IEIi6obnS2d9DJ9z+ktseep/bDf6OEYy76BzWRo8RNSQOGUdFdy6jgW1MoIdGlPiNOb2JaUBBQ65mz1PTFEWpbv5Ea1q3hxx1UQgmUSu3sZx11sv/ZY6mF/X+A/z53wR00eMl8ShtRTMk52XGBdSMmBdVSc4o6T56m5k8+pfqnN1L7/i1MOkOYkHLYbxOUBzEgJE1Q3fHROeqgo5RaehUVfP8W8pSXc3GlFOarj4hdYkZQsEZnd/2FaM9eatn9F2qp+oBJ5SSTTwG7pamP6kl/gtKA1fKy14AQ0ysvJ88V7MbElVU+lhxpqeqjYgvbCwrWqGnTW1xEbX/eR97qvzMBudktg/22yxr5I5iguvCxf03sdoaSS8dRclkxZY6fSIPmz4k5q2VLQfmamqlp9146u2ottW3dyWSjWIsESmY/nfy+HvQLqjuKuBQ6KHniGBp6352UP/XKmLBathBUb+e6cd1zTAZ1qnPtvzvTg5yguuNjz25jz48dZ97SgkJ31nHwMLVVf06Nm7ZQ69aNTEB9nWtZQhdUd3zM3zrFbjW2duYtKagzO3ZRxwcfUceXR6m1ajv7qo4x+fTvXMtirKC60Jx5J3vP7spvkLt0LOVOraCcyyeoj7AulhGU5lw3fvwReQ8cZ871YSagVHYT84tECJegulD8rU5qpMRRzFKVl1jemTetoOAXdba306kPPqHWXz5BbTt/z7oyTH+4wiqi7oRfUN1R/C1YL8S43BNnXHDmExITLeNvmUpQEFHjkWPUdqqW2ja+Q42PP8lOcOjOtSyRFVRPFGd+P79fuOJ+Kpw90xLOvCkE1d25bnj5TW6NjHSuZYmmoLpAt3j+gtXKm3+DqZ35qAqqYdtOatr6sepcf8pO3AkmH09UrJE/zCGoLrqc+QHMmf+6KZ35iAuqh3P90UHy1Z5lR+EXIegXPWvkD7MJqgsteNpBrlEDyDWykHImTTeFMx92QflzrjHEd7Ab5vXNJqIuOikh10X/ZF9dZ20Ha+O9mhE48+wcM4FpE9bDHvrXqDnzYRGU5lzTCWaNWJdWv+ox9oExiRod51qGTua3pK9cwocENaueYj+z1N+YG22ZDd5v/orl3JlPys8ld3FRRMRlqKDQndXt2kOOQ/up5e0dauRas0bhH+Ybh5cSxmVT4XNr+UB+323LyXcAXYxZrZQ/uiLz6RU3UO7cGZRWVEyeCeVh7RYNEZTmXLd+vpf7Rd7ar5iQzONci4LuI3lWBQ1+5Qne/suipdTwux1MTum8bTVgtXzM1jopn9Iqy8PqzEsLCjP65158herffoM6/3yKOdf1/Hikgo7hxMc8p/QN66jwX6bzNi6Y3dfMYkOHobxtXbpWQjhzM8l5SR7lXz+bihfdathKCN2CgoDa6huobjtzrn/9gupce9hVW8R+a2bnWhSluxv22ftqW+HT8snkPXCefcok9YjVUZx5L51g985diMyjS0zKSJcWWFBBYfeH5lw3rHqB/fGDTD7Wca5F8dIeytiw+YJ10qh5ewvtu+kGJqeL1SP2QnPmnVRIeSsWU86kK8g9eqTwbh+/gurtXLdt/SM7msyEZDXnWhRmnXKTqPjwR31GRBi57vj6FdR5EFsX7GKl/BGaM99DUHZzrkWBdcp69gXKWzBPPdKTmk2v075b59vWSvVGc+ZduQMp9eqxupz5C4KCVfpq2FDenfFfmDByHV4U65T34Uv9mnl0/3un3MoGIC02t1K90VZCdLB/X9CEvX/r9xxdCKxo5gzWSLFIsSQmnLKTlPnAUh4A7A/8bgB7DBzZ2MLB1JDCfiphk0B+lZ9Ina5Bn83wknPcaKLysoDRZPwOM/1Jo0bxKzZOX3oIKrF0OjtRzWordsCKyZQZV1H2hEvUI/2Dx3iuncaeo+1siR1wEWGuMBA9BOUajcAdJkJjiU5y5GZTwuVX6JrrwmMwpHbmYq2WTzkYI+AiShmt+Nj90dNCXTyCX62xBCxywqX5feJOgcBjEycWsefG1sXXSa2UdrGAoBzcIW1VGjECVkFkLV6mtvRTtGQZaUt0YwXEprKLB6st//QQVErxMHaC69RWLOBlo5cC8syZqbb1AyulzO3FVrcHjQSih6BogPnWKIcT7OfLWnOP2hJn0OofMTe1Wm3FCEE00tMpz7Dm8gw5EB5JprQ51ytNCbDkViF2rFQwjfS0UAxX7nj206s0bIyPjlD2mgdDWmyGLU1DV69lrvlX6hH7gpBBEo1TW/3TR1DOsfCj7O6Ye9kHLybnlZepbTkQQkD+TexCsb+V8lFSxXC+tCUQPQSFByeWFLN79h4OY5rFvXIeZYwUW5rhj7RBA6hg5SIm0VPqEXuCiWL3pRIWyjEolz3ZzrEoLzlzh1DapApDViniNTLLy/iMvJ2tFHotlyeDWeVE9Yh/eggKD7Z7LAoXS9LMCZQ2vkw9EjrYsoTlHV2JxuwHBBUsBgV6CcpF3rQk9mS7xqIwsnOR+7oZhmaTw2sNmfEtSmCvbVcrhWXC3qwcrpFA9Ony3PmD2InxqC274SPHuAGUMWOq2jaOnDk3kKu0gEnWvv5nYk7wvYl9BNXmdLCD6PbsFzpAIDNzyXxDrZMGXjP/O5XsrNlxrZSP2d4R6v3A9BFUarqbHKUYBtsPdOXZSxaqLeMZtmwh7xrsBqxuYukgcqYHXwreR1De1BRyfA0jPXs55thrl7nyoaA+QCjASiGXEyZR7QSCmli24kwNbtn7CAqh9cTsQeyenXwBOOOtlHf3HUozjAy/d7kqKHs55470VF1Tc30ExSOhWSnsKzBfEhtZkHcqY+VPgsZQjADnT7FSdgp0dlDKiCFBo+Sgj6Bgtp0FWI1olzXTnXzU6po6OazdnQbv9mbPZH8TW/LtYaV4UDMnU9dgpo+ggDPJrd6zPiiXkfKDa3gKQVGwtQw3UfC3MpfOYH/7vHokdvArKF8GaqEgFmX1HTCd7ANmkXvSNKlVBcjjgJso+FuDvqkt5re+lUJtnIwM1MYJjl9BISLqyNX3AmYG68Vdc8dKBTJhmdo2vE7Hqn4rZaXSp0+l9MoK9h6s7jr4eKYWaEIPfgXl9mQSDUS3Z/2ry10xWVff3xvUjWnd+Co1vLuZWk+KCwpWCuXO7BA5d+Szkb+OKDnwb6E8SOdidT+KdddFTspadIvaFgNFiJDaGtlIjr+0QT0qxsA532Y/ISjrXpi4IByZbl1BTeBXUMkF+ZQwxMNezLrBTTjj6d+9Tco6IRcWysV6KZdSmKBqHlvNj4kCK5W7YgF7L1Z2zn085wM0oQf/gsrJJqfb2hPEnfSVdCDz9K+fZNYJqYsU4Nh/+UyV2hIDgU5k57UyrvRMrgk9+BUUj9e4wx+zCRc8peGd90tZJ9Dwm5fYiekSlIt1fcfvX8tzRInCrdSCO9h7suYcH+/yPGm6Y3h+BQUcLqtaKGWaxbOoUmkKUrfpHaJjWGnRPbGacppOvvUW/18UFF20spVKTMtT7wWnX0Eljew/rY2Zge/kXrKYkkcG3pDoD55f/d331FZfav70JykrhUBn9qzbLWulkgfqX33Sr6CchYXqPatRTwnXXS3V3TX+z25e6FqZNumJg9Koeds+pbK6IOj2Biyca0ErxRxyrHAt0bcWCvQvqHzNzFknWo7qB6kLb+b5IGVo3r2TV03v2d1pOKh1fzXV7dmjtsXAe8qqxIivQT1iHfTGoEC/guJbjouslKAVwndR0uQruUUQBekOkaA20PJnlHSt3fiekhlZEC3QabVlQXDKUdpDL/0KCvvNrIWPnNNHUMpl31DbYnj37uPZjgMlqEVawIaPN1Pj3w+pR8TIn341JU2zVvY7R4lbSAv9Ckp2yB0tsD0q9fIK4bzagAcyX32bCSb4fBUyrpyo2igV6MR7yxj7DUsJCohoof8uj+HwoOuwxrRBJxvdpc2bq7bEaDp+gprfeI4JKlM90j8Icp5943n+HBkG3XYTO6Nn1Ja5QXfndIqFjwIKKuWyCfzKNzs+quWhAhnrBOoe+BU7EfqfCyt16IFH1JYYnrKvUVpFhSWccz0pEHsT2EJZZFs6plnS7/6e2hIDXZde66ShWSmZbg+UPPogu/a/UFvmBXO5wVIg9iagoJLHjGEvelJtmRMeKpglb51QUav7vJ1eQpnfg5VC2QuzWym928+7E1BQXbEo8+Kjw5R61+1qSwxYmPPrXmYnQVxQmN87vWWzVOQclP7sx6a3UojsO0boD2qCgIIye4pEWKe0hcuk1ouD+vc+IF81nOvAp6E/2v94lE6+/6HaEsNVMpxbKaTJMTOi5zbgmQxUpsIMwL9zXjdVKpDJ5+14lS1YGJkyJA4uhprfvym9CqFo+a2EsvlmRu+yFY2AgsKSBbNuVsAIJGnuVHKXyU2z8Hm7bXvZ55Nfmepgjrzs/B5IuWgUH/GZ00op4SLRrWdBbb2rFJFnc8aiENaQdcbbqj8nbzWmUEKZXnJQ2/6DfH5PxkrBOfdMwbpz8wkKMahgZTj8EVxQo4eyFzdb6MDL0/KkT52mtsXAXFzjpi3MOoU+G+BgFhzze41HjqlHxED9Odco8+XolIlBgaCCMmO5DgxnYZ1Sy8aoR8TAXFzrVmxCCL2wZKjzeyhmmFJewuRkrux3OMdJxeLzuUEFZcYUiah7HEogs6NqE/vgcl2lP5A7SXZ+Dwxd/gPThRD4RTtcLAYFggrKbOU6YIqTJ82V9p1aD30pHBkPBgoTInJef0h8WQvgVmrURPbZzONLIQaFWsOiBBUU9uiZCVgn94Py5TTO/OJxQ62TBub3jq5dp7bEGf7wSl6V3EykDEVaJzGCCkpPkqlIwUMFE6+lrPKx6hExsKUc1glfP14r2C2ROf+t1MBEHPyG16xd/6R0t4dMwqhUYKalLTLfvd8y+93BiOj0lNuosxYfNLorOFG1fMAfPqL0qyaqR8TAjpbzT60nR7b+Ja2n2Vesl/Yzp3mwsnDObPWIGGapug5Ro0j3+C/fEg4aBxUUrupTi+6m9q0IAoY+KpKFW4xJZZT9xEPS/pPZwcX7eeUy6th/mn+h0QK+XHLFaBpX9YSwoIJ2eWYp14GBgXvOdNuKCWCqq+D7tzBLHN1MwlxQQ4t0ZazrTVBBAWVdVDRTJHopceJ4Sr3ym2rbnmCaA1XXk0tRUyV6gU4eMhgxRG2JEVRQyEvpyoluikQEVpMqLpUOZFoJhBBSrxrD5BS9BBsQFFIgyuQk1SEoF7UXYsY5WsFNpWq552a5reVWpPDab5OjBJPy0bFSPAZVmCs8MQx0dXko1xEtkIUOxX5iwTppoJ5x0kUIKEevV5D9znUJCijlOiK/jAWBzJTbw1f9wKwoVdejEehUynCgRIsMup7lRJ20cej2Im2CvbxkLfyKWANWSiGy5xzLVlCGQxZdgkK5DmdOPvtjkfWjvFRNqf/5E7UVexSveZx1epGuuu4jZ3620Pbz7ugSFEoyOIsju2GBBzJLp1P+jBnqkdijeNGtfI4wklYKFgoxKD1lOPyhS1AIcDkKoNjIBTexfcv944WW2xJvJBi2D15zHzvrkay63sHcDI9UUBPoEhS+VGQFjlxwE4HMy6UTX9gFDNtzrrycEnORPC0yVorHoJjPLHsh6xIUSEhHEq7IDGNRKDH1xmmm33UTCVC5Pe+OeewSi1wxIgQ1ZQk6Oaxx5qnn6dw9a0hZhy2z7UgvXj6izFvzkPSqAu29hloNoq3WS7W5oX9WX20LjX72fspbME89IkbN21vo0E33qy3dNkAKLMUZvOZeGv6DJeoRMXS/O6RIjES5DpjcpKvKpMWEGfvGjz9i9zr4kptQbons3bhqfex+BxeFzI0/l87S8U+3hbRWKq2ynL1OuNedK2U4ZFZqaugXFLalh71cBzOWRU7KvPFmtS0ONgu0b9zJbCjEj/Vb8rf2C5bYwZeTyNzwXCflU9PWPXRuz+fKywkCfwZV1yMBktyLpEDsjX5BcUct3OU6fOQaOEzaOsECdO7Yrg4ewtkti+KgtgMHpPfvAVRdRza58F7Q7HvOytZdhsMf+p3ygjzqzAzv1AsCmR7J3SwAScAaH61iH0pf5aRIgvycJ59+hVrPnFWPiAErNWDx0rCGEBCDEinD4Q/dgsIed0emvCkMDnPGyUOeOTPVtjhtW5C4op7dzGSdFLB/r3n/NqrbJZdFGAz/4WJmn8KZ61yxfrIxKKDfQqlLGcI1/cKt07OPqS1x0JXwkR2fxDYnmHQ9tvYZtSUOvoPBKx9mdiR8+c5R1yWUYLJuQQGlWno4UCaBUbRQFiS/wMoExaE2J9i/h13GGInKMnDebGbtwlPPGF0e6rqEgpCgsBQ4HNMvCGRmPrBUOHVMd86uWss+jPhe/EiD+nvH/lsu8x1Aiue8FYvZJRieQGfqwNDW7IsJKiyRay85c0cSlZdJrRAEuOLbtiJUYP55P4QQah9bLz3aQ3dUdMO1quthtJXqoIIxo9X7cggJStmWbux8Hl9uesdcyp5wiXpEnIanq5iYsP7ZfM54X3DKXfTluheUpgTIfpe1tJKdO+PXnXsHiKeH7I6QoJQUiUbO53Uy61RAneXl0tYJ+wZb9+9mUrJWSdu67TukrRT2yhVefTX7zCmsZZyV4rMUkuugNIQEpZRoMG6Uh/XizsklfGpBltbtn5Fvyz/YPbFrI5qgslXLnoN8ICGL54orKfm60ewcGneBQ1ChlmQR+hZCGU76p4Myb5on/bqIjDf/7y7ebVqju9NwUMeBE3Sqeq/aFgdWKmfSdCYC4wZJOI+hfsfCl7US50HFy1BRXiOUQCZS87T85j32nsIZcA0P6K5kK1tpDJo/h4nAqDIfPuaFlqr35REWVNIs5DEKPaMdApmZzz6otsSB/9H8yafkrUXmOPPGnvoj1Mx3AFYqf8Vydi5r1CPyYCVD+iyUXwsNYUEZkyKxk53QIXzCUxbMiTW8/KZqMa0J1ouf3PSu9LIWUPS9hYYIiu/OlkiB2BvxLs+AFIk+OkKZ/3FXSP11x8HD1Lbz9+ye9ayTBtJSn13/W+nKVgDJQ4youg6HXCYFYm+EBRV6ikRYpxxKmnq12pZDiYxbPROLcvr/+drr/H9Zht61hLnmoc3vQZD548rUljzCggq1XIePTlD6yiV8rbQsPPbEs/galyczWqBmzD9W/ZvakgPLTYywUkaUYhEWVGhxCkyzDCHX1MkhdXfn173IfTB7oHwFp9e/xv+XAc754CXz1ZZ8oDPUGBTQvUlBA6OrLzKHsNOAdcdisR9s3kyeVUGeO7/DV4DKUnPdUr7mO9z+EyaZ6ti7DvfmMQQnkyYW05h1a8jbLOegtxw9Tkd/+TjzK4+wb0U8+10b/ZUmn6+XnrHQkBLU0YlzyLcfjqToF8r8p3EeZp1Cmybx7sSqxfA745ESFNBEFQodh2r4pgjRjgd/21WaRxN3vhsdQR1feBe1vvGBpA+DPxfq/FNkRnaRFBQIdRolgXlkMm4xfK+MWdPo4qrHQhaU8F/HH0ydotQiRhemCEQEdJMQRCg3e9J7x4zoTfzr9LF/DewbbKWMb14SspiAsIXSOLNjF7W89jK1PrWVi8sOI67eRNpCRRJYJWR1zlhaQUNuXWRYyiRpQQFEeFEVs/Hd96i56lX2Bgv4m7QLdhQUMvwikVlW5QIaePMtfKWHkZP+IQlKg8eFtn9GZx/+NXmr/8oML5I7WB+7CQojOdTAG/azH/LlL6I5yPVgiKA0IKymTW/RmXvuYKIazqwVQgNWWlbSE3sICn7SeR5JH7p6LV+hEA4haRgqKA10hSfu/im1fLiV6Bj222GXhvWcaWsLCkJSciFkzJpMZc89amjX1h9hEZQGHPe29Ruped0f2NdiPcfdqoJSHO4UylwwnUfQI5mjNKyCArBWTbv30vkX11NT1TPMTqFKgDWsldUEhThWO+3n83oFc64z3OHWQ9gFpQH/qm77J9T88JPUUf0xkxQqLpnbv7KOoHxMStW8iCPq7nkmlIfVTwpExASlYSXH3fyCiqzDrYeIC0oDXeHJ+1ZR0/vvMse9lUkK83vm6grNKyhFSCjfkTGxgkp+8dOoC0kjaoLSaNi2kxpeed2UjrsZBaU53DkrbqTC2TNNVxQg6oICZnXczSSo7g43Rm4okxtph1sPphCUBnfcd+2h5u//O3XU7o66424OQSkON7Y4XbThkag63HowlaA0YLHOvfgKnbvnEd6Oln8VXUEpfhIYtPpHNGyZNYoAmFJQGrBY5371X9Ty4TbyVh9mo0Js6IycsKIjKB8hVU/iqGLyXDuNht+73NQWqTemFpQGj7i//Q41P7qZO6UOCi2hg14iLSizO9x6sISgAFaKIrlEJB33yAlK8ZPM7nDrwTKC0tBGhDXXLGCtematxDdL6CX8glKEhK58/B/eoLTxZZYVkoblBKWhOe519zzJvnLEr4x33MMnKMXhRvc2cPUPLeNw68GygtKA4459ek2b3mOO+9/Z1Y4MbMYIy3hBdTncuTfPpqIlt1nK4daD5QWlEQ7H3UhB2cHh1oNtBAWMjrgbIyjFT8qedTuNvPO7tvCTAmErQWl0Oe6VrNUq7biHJihFSGDMhs1RWZsUDcR3BVoAfHEoQDSy+Qhlr1lNCbkuJgtEnY3IvBcYzLlhrxuVJPAi1FOam3mF81gQE7ClhepNX8cdSSGCWywxC+UjFPZJLh1HOZUzbelw6yEmBKXRvHcf1b36O2p6dAOTSXNQx12voOBwg9wVC2ztcOshpgQFNP+q7vEXqPmN5wI67sEEpS0pgcNddNdiS0e4jSLmBKWhTeWcvOa7TBhnmLVCqseewupfUEr3BkZvqKKCb00xJC+AHYhZQXUHRa/Pr3uZfNUnmGfVtYewt6BgkXBDZU0UQxxx9zL1N3E04oJSgeNe/+qr1Fj15gXHHTWHFUEpEe6k0hLK/04lFVx/DU+WGqcvcUH1Ao57/eZ3qH7VI0xOOXScSQnzbgNX3kdDbriWUsvGqI+M44+4oPzQ3XH/55lTNOLn98Udbp3EBRUAOO4g7nDrx5aRcqOAkOJiEiMuqDiGEhdUHEOJCyqOocQFFcdQ4oKKYyhxQcUxEKL/B46HMTGmUU50AAAAAElFTkSuQmCC;" vertex="1" parent="1">
          <mxGeometry x="220" y="80" width="74.94" height="80" as="geometry" />
        </mxCell>
        <mxCell id="d3MNBODYQ0l3beVv2zK8-4" value="" style="shape=image;verticalLabelPosition=bottom;labelBackgroundColor=default;verticalAlign=top;aspect=fixed;imageAspect=0;image=data:image/png,iVBORw0KGgoAAAANSUhEUgAAAI4AAAB3CAYAAADVYHjZAAAAAXNSR0IArs4c6QAAAARnQU1BAACxjwv8YQUAAAAJcEhZcwAADsMAAA7DAcdvqGQAAA79SURBVHhe7Z15dFx1Fce/mX1JMpM9aZukSZqUrqFYaG3ZitajVpFD2csmglUOoMAB/xF7ABVBFFGhsrhUQIqKyKKCULqwWAQLbaFNl7SkSZq0SSaZLJPZMvHe1ymnJGmWN783mbb30/POZF4nk3nvfebe+3u/3/u9tHnf39gPQRgjpvijIIwJEUfQhYgj6ELEEXQh4gi6EHEEXYg4gi5EHEEXIo6gCxFH0IWII+hCxBF0IeIIuhBxBF2IOIIuRBxBFyKOoAsRR9CFiCPoQsQRdCHiCLoQcQRdiDiCLkQcQRcijqALEUfQhYgj6ELEEXQh4hyD8CwR0Vg/+mgJRj+98LqBixHIbBUpTriPhKCllwSI9fcjy2pGsdeGkmwbMh0WOGxpsFvM2mtD0T4Ew/TaSAyBYFT7vcbOCBr8EQRjMdjS0mBKAxxmEy1poKe60S0O/9ET0TgzbbgR32JyQiNGOcBsMsHpMKEw3YrqiW6cXJKB4lw7yorS4bIdkmSs+ANRHGwP4qA/jN3NPXhnbyf2+cJo7Y0CJFg/bRN/Bj6uo/FpzOLwi08pdmNhlfeTjT2R+KCuC+t3+WHhr64C2MEYPRZRFCnLc2IWiTKHRKkocsGbbksoKoxEINSHxrZebG/swYe07DgQQJMvBF93hOSliBR/3VCMWRzyE9csLMT1Xyw9tOIE48l1Dbjn5XpkWBMrD1mYTkop8+hL+PnqXMwuTkd5gQsZTkv8FcklSlGnrSuE2gNBrN/Rjhc3taCP1h1NHn1bfwJGmsPwzkwE/u0QFbEV+U78alkVHrx6Gi5bWITqyZnjJg1joZqnwOvAgqlenFHphdMyvBrSqkoSLAwvVqpRrjurCI9eOw2LZ+dQOrJqaSGV0OqcET6SiJMEDteC86Z48OiVVVqaz3BZD608RhFxDIalsVA9dMXpRbhzaQWml2bG/+fYRsQxmH4K+dedWYTrzpmELEpLxwsijkFwduKTd5fPL8DViybBnmArLNUQcQwgXtJg6dw83LRkcvzZ8YWIYwCRWD/mV2biW4uL42uOP0QcxXAxXJBhw2Xzi5CdbouvPf4QcVRDxfDpJ3kxl5reRnYXDCTZ3T8ijmJMVARfeGq+oSf1guE+NLcHsa2+Cxtr2rFmaxte3tKKtR/6sI6WN2nd5r1+7G7qhq8rjHCUe8PUoq+vakEhrv/SidlXtWpNPe57tWHIvqoQtaLOrc7GiouqtOELKuEe+dqmHrxFUmxtDqC1M4yu3j709EYRIDG474t77jniWc1pcNvMcNnNyHBZkO22oNhrx+xJ6SgpcKIk1zms2Pw3Vjxbi65g31H7qnSJc/lp+bjyrIkUHtXHxxyPPf6Tfvgb1h2IKv98ZrMJf9rQiEffaIbDMniXttOO/tsNMzCj1BNfkzi8CTX7u/HQK/vwXkMP0lgSCiC8ZdonONqRjW/6ka8zkVD9JFdpjh0XnJKHL5ycBw+JNRBDxOEXd0Vi6DEg/PF777t/4aEnCfDubj9uWb0L+zpC8TXq8FhMcA0RbTgi5GZY8cJtc+gbr6YC6KWU9JeNB/BLinCxvhhsdOBVwDJ20zH0OC34WnUWvnJqAcryXHBShOK/YIg4RhKknf/Bj+bHn+nn/T1+2vA9OEDhXM2uHpkIpamL5ubie+dPia9JjC5KQQ+/ug9PvH1A66lW5MwgeLhputOMc2ZkYfH0HMyr9GhfvJHEkeJYEWGSflZpRvxZ4rz8QSueebcF6RTdjJKG4ZQboejz4v9acddze3Dfix9jf1vv4Ux3VEQcRXAaKcxyxJ8lRnt3GK9t98GSpFzAXtrp83dSlHtpUwt+uaZRGx04nK8ijiKcVjOyMxMv7JmGtiCafaGkpdnDHP57HIFGaleIOArgfUx1JRXNag51b7ifWob0rsk2ZwyIOArgcyh87mT44d2jx04tZB7KOWKhMY6IOIoIxs+tqCDfa0cWNe1T2BsRRwW8E3kQO1UGh1YkSBEV2SdPSk9qX9dYEXEUoB1gqia5JaKKSxcWoqzAqQ0GS0VEHEXwZbcd3ZH4s8ThqHPX+eWYOdGlnaRLNUQcRWjXabeH48/UUDUhHT++pBInl6ajN8XkEXEUYaV89cGejvgzdUzKceJnl1XhvFNy6WilaS24VFBIxFEEN8c31nYaMvYlJ9OGO5ZWYMV5ZZhZkq4NieBpTsYTEUcRPLylllLV9rqu+Bq18CQHX5qTh3svnoJbl5RifnkGeih9GTX/zUiIOApxUtT527vN8WfGkOex47y5+fjxpVPxyFVTMTXfAR+15hQPPRoREUch3FH4j5pO7Gnuia8xBk5VmS4LFpyUhVU3VmPVNdMwc5IbMfr73K5LhkQijmLMfTE8884BbRBWMmCJPksCPfyN6Vi5rEq7lqu0wKldQWpkGhNxVEPHam1NB7bs605q64evFP1MpRe3fWUy7rmwArctmYx5VAe1h2OGFNIijmL4LLKvM4wnNzSiK8AjtJMLD1utKHTj/NMO1UG/+/pJmF7k0s4DqUxhIo4BcAto3U4//vB6PUIR9c3z0WAig7kOWkhp7JFvzsAPzy+Dh5r17I4KgUQcg3BT6lj5RjMeW0uRhydoHEecNjO+emoBVn97Bq46vRATchwJn0gUcQzEYzPhiTebsGrD/nGXh8nOsGH54hLcfUE5vnpKDrgXQ28BLeIYTBrlhafebsbv1zUiOE5p60i4FTazOAO3LinDTy+eoqU0PfKIOEmA5xB+bP1+/PyFPdoluTzR9XjDV3meMysHq2+ahfI8ar7H148WESdJcM3z9LstWP74Nry2tQ09wfFPXUxZvgv3LavCmVM9PE/2qBFxkgjLU9cWwj0vfIwH/lln+Bnm0VJKEeeWL0/Gkups9IwynYo4SYZKDG2k4Ivvt2LZo9vwhzX1497TzRRlO3D7ueVYVJk5qsu7RZxxgEea8tJP3+77X23A0l9sxutb2rQRhOPV281w3XPnxVWYPcE14rkeEWec4Ut8G9uCuP2ZXbj9qRr8eeMBbGvoHrcWmMdtwbWLirXH4dwRcVIAPtPMy6Z9PXjwX3W446+1uPu5Wmzc3p70NMbN8/mVHpw9zRtfMzQiTgpx+I40Da1BvLzFhxtX78Ilv96K1za3JK23neHpTpYtLEJsmPs5iDgpCHeU8tXEZoo29Qd7cfPTu7GMBHp2YzPaOsOIGDA8dSCleS5cNCtLm2VsKEScFIcl4mZ8gy+EFX/fi2se+QiPrWvEjv3dhhfSF50xAWkUBYcqlEWcYwTOYloh7Q9pHae3/7kWv6emfIs/GH+FeopznfjsZLc2b/NARJxjDAuFIDtZ1ER10ONvNOGax2rwNhXRRsCF8uLZudqkUQMRcY5RtDqajufBjhBueGonfru2Ad0GdGOUF7jhoEg3EBHnGEcrpOnxoVcb8AA15Xk2L5UUeu3IdpoHndMRcY4DWB6eSu7591pw70t16FU4+QFfaJibbh1UIIs4xxF8HmjtRz5t8JgqePxOtts6aCiIiHOcwcd3fU07Gtp642sSw0SGuO0mSVXHO5y2+D4Ptc2KxKE3tFFxPLBhJeIohE/IRUfqVjYYbmx1h2M4wCMNFZwg5M0Zqr9MxFEES3PpvDxkOi1HPU2fLPpj0HrXVXyKfvrH09Rpzf8jEHEUEaCdO39qDp65cTbmTk4H9yaNlz42SxoyHRYtbSUKS9PRExk0n6qIo5BotA95mTbcc3ElrlhQiPwMa9Ln8OPUwjcjmZLv0OqTROE01dodHfReIo4B5HrsWL64GHctrcDnpnu16JOscTV9ZM5pFZnaZcAqCFDKa+2iiCOpKjnYLCbMqfDgB0un4IFlVZiY49Bu9RMyUCA+yOX5Tnz78yXamBoV8K0BuqjYllSVZDKoWObrt5/9bjUevHQKTp3khtVq1m4Yxw5xaklEJf5dfo8YhYRFVZl46oZZSm+M/06Nb8gPKOIkCT6r+7nqPKxcPhO/uboK31o0kYppD0rzHHBQdOKWGA9f4JSmCRX/vYFwycQtOK6d+Hdy3RZUUzH+vS8X474rpim7yRrD8xlu2N2pdTsMRG50pgi+a+DKK6pw5oyc+JrhYTkCoSj2+4Jo8IWxrz2IJvq5zR9CfXuYPntEuw0QpzZWge+36bKZ4HWYMSHLhpI8F8qojple4NTky8qwad0DKtlc68flj2+De4ghpCKOIsYqzkA4ivCQUL7TXiTK0Sf2SXThKGSjSMLBhBrZsFJzm8/m8mRKKlpOR+O2Vdvx751+OIcQUlJVisDRwmEzazVRNjWnC6hlNsFrR3G2A2W5TkzMsqOQ1uV6bPC4rdrUJUZKs/njTmzY2z2kNIyIIwzC3xPBk281ITbMoHgRR/gUUcqPaz5sw39rOwd1MxyJiCN8irrWAB5Z24jAEOdujkTEET6BU9TNq3bA1xUZ8c7DIo6gnUCsbe7BrdSKqu8Ij6pZL+Kc4LA0H9Z34ifP78WW/b3a7PCjQcQ5weHZwW5YtRNbGnqGLYYHIuIogvd5V7Bv3OY1HguRvhg+PhjAitU7sfyJHQiFh785/VCIOIpwWkxYuaYBv3qlDptq/VqhyWkgleC+p611nVi1fj++88cdeGGzD/kOfb3o0uWgEPr42pjj/Eyb1n80Z1I6zp6epc38oGqYw1jhg8szXPxnRzte3+XH3qYAmjpC2n8kcuJZxDEAjjS8U/nA9FMk8jgtOLsiAwsqvZhZmglvunXIHmdVcP/WQX8Im3Z34I2admyo60EfpdD+vn5tf6joqUgpcZjqImf8J/10hmNas5LPgqYCHIn4Zq8hqi1MVIFOzbajPNeOikIXSgrcyCORsihKsWA8/IKbw/w6dosPclr8SPeTkSwlb1aM3osfeXhFa2cIHd1RNLQE8H5dF3a3BLHHF9LGCzssh2b7Uk3KicPflkThHW3AvlIGH3y+MpK7giL0aKMPa6fIxIPM3ZTSctwWZFLtwZM5cmTinnAmTFGDe8+7qQj3B6Lo6I3CH4whSm/EYvIm88K/Y/T2p5w4JzocRfiYa9GFH7Wf+X/4C3Ho/7SFnvBqAzPesEirKsVgEThacLriFGOlhScU4IV//iSV8WvGSRpGxBF0IeIIuhBxBF2IOIIOgP8DlxbgNVfedDcAAAAASUVORK5CYII=;" vertex="1" parent="1">
          <mxGeometry x="280" y="1" width="70.4" height="59" as="geometry" />
        </mxCell>
        <mxCell id="d3MNBODYQ0l3beVv2zK8-13" style="edgeStyle=orthogonalEdgeStyle;rounded=0;orthogonalLoop=1;jettySize=auto;html=1;" edge="1" parent="1" source="d3MNBODYQ0l3beVv2zK8-7" target="d3MNBODYQ0l3beVv2zK8-11">
          <mxGeometry relative="1" as="geometry" />
        </mxCell>
        <mxCell id="d3MNBODYQ0l3beVv2zK8-7" value="Front End" style="rounded=1;fillColor=none;gradientColor=none;arcSize=10;dashed=1;verticalAlign=top;" vertex="1" parent="1">
          <mxGeometry x="120" y="-70" width="260" height="250" as="geometry" />
        </mxCell>
        <mxCell id="d3MNBODYQ0l3beVv2zK8-9" value="Serverless" style="points=[[0,0],[0.25,0],[0.5,0],[0.75,0],[1,0],[1,0.25],[1,0.5],[1,0.75],[1,1],[0.75,1],[0.5,1],[0.25,1],[0,1],[0,0.75],[0,0.5],[0,0.25]];outlineConnect=0;gradientColor=none;html=1;whiteSpace=wrap;fontSize=12;fontStyle=0;container=1;pointerEvents=0;collapsible=0;recursiveResize=0;shape=mxgraph.aws4.group;grIcon=mxgraph.aws4.group_on_premise;strokeColor=#7D8998;fillColor=none;verticalAlign=top;align=left;spacingLeft=30;fontColor=#5A6C86;dashed=0;" vertex="1" parent="1">
          <mxGeometry x="510" y="-30" width="280" height="270" as="geometry" />
        </mxCell>
        <mxCell id="d3MNBODYQ0l3beVv2zK8-15" style="edgeStyle=orthogonalEdgeStyle;rounded=0;orthogonalLoop=1;jettySize=auto;html=1;" edge="1" parent="d3MNBODYQ0l3beVv2zK8-9" source="d3MNBODYQ0l3beVv2zK8-6" target="d3MNBODYQ0l3beVv2zK8-5">
          <mxGeometry relative="1" as="geometry" />
        </mxCell>
        <mxCell id="d3MNBODYQ0l3beVv2zK8-6" value="Amazon API Gateway" style="sketch=0;outlineConnect=0;fontColor=#232F3E;gradientColor=none;strokeColor=#ffffff;fillColor=#232F3E;dashed=0;verticalLabelPosition=middle;verticalAlign=bottom;align=center;html=1;whiteSpace=wrap;fontSize=10;fontStyle=1;spacing=3;shape=mxgraph.aws4.productIcon;prIcon=mxgraph.aws4.api_gateway;" vertex="1" parent="d3MNBODYQ0l3beVv2zK8-9">
          <mxGeometry x="40" y="105" width="60" height="110" as="geometry" />
        </mxCell>
        <mxCell id="d3MNBODYQ0l3beVv2zK8-17" style="edgeStyle=orthogonalEdgeStyle;rounded=0;orthogonalLoop=1;jettySize=auto;html=1;" edge="1" parent="d3MNBODYQ0l3beVv2zK8-9" source="d3MNBODYQ0l3beVv2zK8-12" target="d3MNBODYQ0l3beVv2zK8-6">
          <mxGeometry relative="1" as="geometry" />
        </mxCell>
        <mxCell id="d3MNBODYQ0l3beVv2zK8-12" value="python request" style="outlineConnect=0;dashed=0;verticalLabelPosition=bottom;verticalAlign=top;align=center;html=1;shape=mxgraph.aws3.android;fillColor=#FFD44F;gradientColor=none;" vertex="1" parent="d3MNBODYQ0l3beVv2zK8-9">
          <mxGeometry x="170" y="118" width="73.5" height="84" as="geometry" />
        </mxCell>
        <mxCell id="d3MNBODYQ0l3beVv2zK8-16" style="edgeStyle=orthogonalEdgeStyle;rounded=0;orthogonalLoop=1;jettySize=auto;html=1;" edge="1" parent="d3MNBODYQ0l3beVv2zK8-9" source="d3MNBODYQ0l3beVv2zK8-5" target="d3MNBODYQ0l3beVv2zK8-12">
          <mxGeometry relative="1" as="geometry" />
        </mxCell>
        <mxCell id="d3MNBODYQ0l3beVv2zK8-5" value="" style="shape=image;verticalLabelPosition=bottom;labelBackgroundColor=default;verticalAlign=top;aspect=fixed;imageAspect=0;image=data:image/png,iVBORw0KGgoAAAANSUhEUgAAAHkAAACZCAYAAAALvpXLAAAAAXNSR0IArs4c6QAAAARnQU1BAACxjwv8YQUAAAAJcEhZcwAADsMAAA7DAcdvqGQAABiKSURBVHhe7Z0JtFXTH8dP5sqQUkpShjLPkamBlDnWksg8LJFkqIWlFpkzpYHIVCSEDBUhK0lpkMpYiBCRRCmEcP7n8+t+7/+8886797777nv33HfPd629zrT3Pvv8vvv327+99zn71HA9ODGqNdZLbGNUY8QkFwFikosAMclFgJjkIkAp79p/WKNGjcRejKgAfgjiJhOOSmmySP73338txIgW/vvvv8TeOo4yQagmk9F6663jP9bm6AGOIBiOxFMqlCL5n3/+MWKXLl3qDBkyxI5jRAfrr7++0717d6dJkybZk6zDzz77zDn66KOdH3/80Y5jRAP169d3Xn75ZWfPPfc0rjIhOX2MGJFFJgSDmOQiQExyESAmuQgQk1wEiEkuAlSoC0WfrW7duvGASY6A7FesWJFybMLfhcpU7hUiuVGjRs7o0aOdWrVqJc7EqAj+/PNP58wzz3S++eabxJnSyAvJH3zwgbPpppvacazRFcPvv//uHHTQQc4XX3yROFMa2ZBcoTaZzjiVgnHUQF2JUQ4gO+YL/JMPuUSFSNY49wYbbJDx6EuM0kCGlSm/mJkiQExyESAyJGsCnPbJH4IIxuOYtiwsbox1iATJf//9t7Nq1Srnp59+cn7++ecSYfny5SUC/Uji/fLLL85ff/1l7Rkkx5592ahQF2rrrbd2PvroI2ezzTZLnMkOq1evthcUXn/99aSmpgJlrFmzpjN48GBn9913T5wt/C4ccjjkkEOi1YXKFRhMadu2rbNo0SLn/fffd+bOnRsadI2++YwZM5xBgwZlVCmKHZFpkw888EDn3HPPNS1Vd4JhUz/Uj1Qb/NxzzzlvvvlmbKrTIO8kQxakbbjhhs4VV1zhbL755naOvnc6LaUtv/HGG50ffvghcSZGGPJOMlqI5kIokx133nmnnYfodEDTP/30U9PotWvXJs7GCCIS5hqiZXKPO+44p3379hmRDP744w8jeeHChUmrwDbT9MWASJCMJqOVbNHmHj162ORHpsAhGzdunJlvhlqxCjHJ/0ckSA7i4IMPtq5EuvFctdkQO3z4cGfJkiXWtvstQ4wIkoy5xfnq1q2bs+WWWybOhkPazxaCH3jgAdNgCI41+f+IHMmQBtEHHHCATaADkRmE2l9tR40a5UydOjVxNYYQSXMNoRtvvLFz7bXXOhtttJERKI31g/MKYOXKlc71119vw59hlaJYEUlJSDO32GILZ+jQoUntTtdvphJ88sknzksvvWTxY6xDJEn2O010qdq0aZM4KhtUBCoGXSrMNl0q4Nf0YkXkSA56xnLCmAzJBJD94YcfOuPHj7dZKlDsREdWk0U0JhpNbtmypR2XBcyzAqNfjz32mLNs2TK7FmtyxIFm1qlTx+nZs6cNlKQDhEL0l19+6Tz88MPJttlvHYoNkScZciDu0EMPdTp06JA8FyQtzJseNmyYM3369GQeEM622DS7IDRZpN5+++1O8+bNbZ9ZKj/R0liBdEzC33zzzfY2STEj8iT70bBhQ6dXr16lCA0DcehSzZs3z96kAFSKYhzXLhiSRdBJJ53kHHvssWnJQtMJv/32m/PUU085ixcvtjFuiPdbgGJAQbTJBAiFoNq1azunnHJK8kM7kRZskyEUL5vzs2fPdiZMmJDMJ9bkiAKCtMUBY84ZgoUw4jDZhDVr1pg28yFZWIWo7iiopxWRDJCcf/75tsUkQ7af8CAgljnnp59+2vYzadOrEwquSstst27d2rpVjGpxLt24NtdvvfVWe9UYTSZNmPZXRxQUyWghLwVAEvu8krv99ttnpJnEB8xs/frrr0Y6gbTVneyCbpx4RYguFdOS6dpZETlt2jQb1xbpxWC6C5pkQJfqyCOPTGmuIVik8h7YCy+8YJ/agFRteXVBwZPMnHPXrl3Trl2CxkIobfjkyZOtS6WX/lKlqw4oaJJFEJ/YoM28RcKx2uwgpO2szcGcc7G8QVLQTygymaXifTAtUJPOcybNe++9Z+9rxyRHHJAlMtu1a+d07tzZjtV3TgVMdf/+/ZNvkFRnFDTJamflWO2www52Xl2jVCAds1R0qWinIZ2QygIUKgreXEMKhM2fP98ZOHCg7Ye1x0FQCYhHl2rixImWF2lTeemFioLXZIhibHrkyJE2yJFpG0s6pWVcGyeM/KpjG13wmgxRvIY7adKkpLlNZ3K5Ls+cmSo0+ZVXXkleq24o+GrLfDFLP37++edGHESjkZmQJdMM0WPGjLE1SqojCp5klpbgzQ+0MhtI8xkgef7552NzHTWgiXy0/u233ybOZAdIxunCcUu1eGmhoqBIhlQIUdvLGDRtMfsyvdlA3S0qy2WXXWb75FldVi8oKJIxpQge04wn3adPnyS5uTCzzGbNmTPHmTJliuXLfSpSeaKCgjPXjGahebzlwVeMHEMwmpctIJNAvlSeRx991BaDI8/q0EYX1BOICL6OoG/L+tAAMsJIhiCRRJtL8J8TpLHkzRYnjFCRihMlFFw1hQj6tLyzBcoaipSGE5/3tRs0aGBkBgkGfoIBWoyl4AtJ0ij/QiW94EjGOUKLET6hLOga88133HGHvavtJ7IskA6NZwlIvnOuDig4kh988EFnwYIFabUKMtFyVvrr2LGjc/HFF9sEhl8zw6BrWIJ77rnH1hZVmlSVKsqIPMkQBWEImZfkcYrQtHQgPvPL11xzjS3wuvPOOzsXXXSRaXM6yHwzDcksFSA/VYBCQ+RJVrvK2xyXXnqpTSgIqYTONdbqbNWqle2TD8e8QZKOLO6nysC49qxZs0yLM6kgUUTkSUawCJg2sjyjUSwZjObKqwZ8YsP6nZtssokdZwK6aSwdxXrchYqCaJN5s5KVAxC0NCpMq7imdpMvLJo2bWrx5GyxpY0+9dRT7VhxU4EK8s4771hQfCxBOmsQJUSeZITJ0OXMmTNtH9K09QNzrBfvd9llF1tQhhEsaTLncab4h9Vpp53mNGvWzM4RUoH7sAovqxZQyUSwQiEgkiT7hccrOnSZ2AphwoUMAkR26tTJ2WeffRJXSmo4W36wdfzxxydJTkc0aVhXm8qmvBQKAZEjGQIRnohk+o+xZK2ZmQqQxVcVZ511lsUvC7TJmHMt0ppJvnj5tOc4fpQtrKJFFZHW5KVLlzoDBgywfbQ0qHFBbeLriEsuuSTt91G0zTvttJPFZV/5BPMD6k4BXhG6++677Zh4hUJ0JElGsATmivGoESqzT5zzA9LV3gJW1z3jjDNM+EGy/OAaac477zzn8MMPt3zVdgdBXmixiH7ooYeSQ6oxyRUAwmbBtRdffDFxJhx+0iGub9++9qI9SEWAKgCDJb1797Z9IWgtgmBc+/777zcfIVVFihIiSTJ90xEjRph5TAW/kE844QRn//33T2pcKgJ0jbhajZd9NDYdSEt3itG3oGWJKiJBMlqHkBEagREmRprSCV3OGOtis44IKw/I7KYiGRBHXaqTTz7ZZqkyBYvMPP744zbVSdkVoopIkQwxeK98o/Tdd9+lNZ16PYdPZFiakfjkkY5gQfFZsaBLly72wVw6yFK8+uqr9mI+UPmjiryTLC2Q9vH2Je9uIbR0goMk2lW0uF69eomz5QfDnThsTEumg8qKFjOWjrVRpeJaFJF3kqV5mGm6QCxKzrdJMrupQBo0+KijjkobNx122203p3v37mnbWd2HCkYX75FHHkmmEdlRQ2TMNUCD+T0fxwguKHCEiHAV+PC8X79+NnxZUS2ifb7yyittpIz7cEwIQuVS2fgykv9VVrSSVSYiY65544OfcqYDBCgN/VzGqSvaHpIneeDIsRYnCFawMFDR6AnwQXuUZ6kiock4UM8++6z9rS0VpK1smUpkaFJapWvZAIJJD2nMUp1++ul2nC5P0lFBXnvtNdPmqCIvJEuAEiK/kuV9qkz7qZhRXudp3LixecRaRiJbkBaCAW+R4IRtu+22dpwKmGgq6Ndff21ToQyQqMKlqyBVibySjCbwxsfYsWPty0QEnapt0zX+maypRKGiJPsDq+Qzk0V5UuVL+RXnySeftCUqOKayFj3JCAUhIBDGphlYQAMQWipwHS1mWScmGCpDkORJt4z2Pt3PxwDxVQ6cQNpmnouyVkb5skFeSEYABIhllomBD47RAM6VBYTG2DRvdvi1OJeQNuPQMUuViiiu6VnYR5NxwiAZq5PKClQl8vK7e92D9iz4RSIC0io+YaDbpK5NZQlRvgHklfeLScqGr5ANybTplfG7+7yQDLgPQkzVBoeBdCojFaIyoHsgxGwqksoXFZLz5ngJ/n0gAeu8/1jnshF8eUDlE3TPTBAsZ1SQN8cLyEHxg2t+EnXsPweCx7mETC1lK+99sklT2cgLyQBBEMoy12GCUhqFygT5l7cpUZqqKF95kDeSY1QdYpKLABUiOWyWJkb2yOSlhWxQoS4U7c+uu+6aOIqRC/BZbqoBoSrtJ3MD4vpvFMgqRobwyxDF0SRHGPLST5Y3GaPiEMG5RtYkq6YxBEjfMNbi7IHsCJq9yrUsY++6CBBKcmx+qxdKkSxTkarxj5E/oICE8pj1UiQrA8aVY42OHkRuebgpswvFdBcvtOknWTGiAT4i4DsxulBY20wGpEqRLBeez1VYRiFG9MDH8zVr1jSFzIpkwKnYVEcfmfIUSnKM6oW4n1wEiEkuAsQkFwFikosAMclFgNDBEAWmvvzwzzbhulfWe8+5hp6HMqv8wbLrLUuu5+K5yE9b9WV1b5Ulk+5PLlCKZKa7eEi++udjND8gnYVU9ADBShBlMMjDc/F87777ri1bITL5SOCII46whWVyRTJATt9//72tL6JBJmTWunVrW3+7qkjmoUrAK4zrFc5duHCh26pVK9crjIXmzZu7o0aNSsZZu3atxSsEUE4915o1a9x+/fq5devWTYZOnTq5ixcvtute5U6kqhjIi+BVKLdevXrJezVr1swdN25cIlbVoFSVVe2ixrMmBl8dEvgmiIXKBGp7ldXEHMMTvv1ERIE1SjxZ2LVcaTGQfMgfq8i9tDZnVSKU5HTkIYhcCqO8QEjlEVQmzwSIk+smiHLq7Zl8oRRT5RVgPpApaTHWIX/qWM0RpUoY2oUCYa/ksmptz549E0epgYmiLeKfxMxNs1Qh/zoGfOrqOXIWPGckKRBMGt8s8wc3gbU78Hr5vd7cuXMtL/LmPIu44BmTnrTcixVslX7HHXd09ttvv+Q9lP9tt93m3HXXXRYHtG3b1la/5T4ff/yxfY7LPZi7ZQH0bbbZxtbIJn2QPLxm8mRalo/QkRcvyXPvvffe2/nqq6+c9u3bW36ABeG4F8tVIGvS01avWLHC/gHNB/nIiW4XPRnWF2NpZ9Jl7QdBsh/eg1hYsGCB27RpU9d7uGQYMmRIIlZ6zJ492+3du7fbqFGjZPqaNWsmt4Q2bdq4I0aMcFeuXJn02OfMmZOMTxg+fLg7depU84C9ylHimkeA+9Zbb7leBXDHjBnjtmzZ0s4rf/bbtWvnTp482bxm7oF3fd1115XIxyPB0nfu3DmZVum32mor16sUrid8ywPZeIRZXoRFixa5ffv2NVkpjbYdOnRwBw4c6NavXz95zquU7tixYy0tmDlzpnvOOefYeX967XtEu56ymUfuKY3dv7yoNJJnzJjhNm7cuER6FbxWrVpu7dq1bR8hDhgwwB7ATzJx2Hbp0sX1NNaOdY4teSEArvXv39+6ebrOecVnv2PHjq5nmcokebvttnP32GMPq0TkSzrKpzI2aNDA7dWrl7tq1aoSJHtaa0TWqVPH4uq+yoMuEzLwtDD57CKZPAizZs2y+3NNcdj698m7RYsW7qRJkxLSLR8qrU1mBR2WSsJ0HXPMMc4NN9zgDBo0yNbh8AqfiOWYafKv4RX8rQBrZLH2tSdcC4CtV3bbx8RhemkOdF2mEfOGt8yqu9OnT08OSPiB+aMp8DTSzC75kg9xuYbZpNvjWRTn7bfftnMKrK/tWRm7H8ekUdnY0m2iCQm7L3FIx0pGrNLrVQpbxJVnGTx4sK2LIjmRN13Ys88+OzSvtPBuVgJe4XKiyWD16tXusmXLLD8/pkyZYponTcGcYZbRZK89LHFPtAMte+KJJ1xPaKYFXnuX1BjyYJ+BG69CuJ5Q3WHDhrleO1YiH6/CWbMQpsmkRyO9Nt/Kt3z5cvfqq69OaqjiYTV4Fk/QpoGeX2Dl03WapokTJ1ocnoUyYwXIQ/lIk/0yoVxem5w4WscBGD9+vKXRM7I/bdo0u0Ycfx6pUCma7OVrgRV6cF68wiQDw6X8r4n/JnKMprFWBo4Lx0Gg2V6bZSvhsu+RYfuAGk4aj2xbsRYHh9WB+CUQi5X7HZVUgxBNmjRxPFKdvfbay7SLpZ34fR9OF5oji4BFYYCIfBgaxWECGjNgRXv+IKc0LJZOPnp2P1Qu8sLh05AqQUPK/J0O+LUXh1hQHulQaeaagiEYhItAWJDNc0LMXF911VVmnrlOQREIa1T6H0bwaq95qZhNCKDieJptnicgrdem2ZJM7CMkr+ZbJZLwAZ6+zHgQrNajn5MQKAc9AFUmfz4QDQn8MZ08iUsaxqL5Bwb7qnyUhcom8vzQsYjCu/acSPslAz8z4bf7VFz/vQHeuhDMsyzkjGRu6CeJh/Q8Vmffffc1YbHM8C233GL/ePLMkP16AJKVRu1hEAgBogGaTBxIhGzuAdBkAgIhkC/EKT7nJPwwEI/AdSqTBAtxgsqG1UHL8CUou87TtlJO3UNbykl7GwTpCFSUoUOHWjcOzUcJIJkV/vhPNPkQVCbkBJR/JsgZyQLawoLfrE7XrVs36/dRSxEMRPDpJYFCE1cEAAksCK4TTw+sAFRJdBwWR/lLUGEgrt+y+OOSPlg2jomvSqF76b4KpJVZDwKZeF67WTY0lLkBrASVwut1WFOnyhC0QpzTPdMhpyTrYfFkR48enSSRwYgePXo4niNiWszvBxjI8Gt+VSBIlAARCorDc4Qt1MagBMQSiKs0eOcQpGPlI80LArlgmvHaVbmwPn369DFrN2HCBPsOOcwKlBc5I5lCEnhIFkPFQRFYgAzHhjlb2lPaPwrPgxI/32CUCsdP5YEgCBs3bpxd55hnA4ygYYIZrYNo4pNu/vz5NloGYRwTAH+dkWyCmDx5sp3XfRlNvPzyy201fka6aC7waSqKcpHMQ/CLWx6emkYfVoFaR3+UwuJE+QGhBFUCBILjJQHlCxACWMqYv57LT8CM3nfffc4bb7xh1zkH0Szcigml/cbz5pkgnOtUCvqx8+bNS5KKxWJl+zBwD5ox8pVFw5mUH0FA1rmwduVa2WXkyJEWeAAKEcQFF1xgZpgVbHFCcCogkQpx0003mXPBoAVjx2gOmlCWx1sVQICqeDg5aB0mE+dK/2qWtkIo3i7PzfFhhx1m4+dYLUgmHyoJf4yTw0ZF9t/DD+RDVxJwnfvwIzLujRPHX2YzWck/E4SqETcNg98DlRb4Qa3mOl0eHlT5UHBWw+UHXbTNOBiaNAjLpyqBM0jFxGNftmyZTYLwm3vIIUAO7TAOEj0FjiEarbv33ntLLMmMXNjH4hGowC1atLDFc4IWi3wY6cIyCLTftMknnniiWQCsQ8OGDRNXs0coycFaJ+gB9fBBqBtEe4VQ6OAH41FRIFt/Ri3rXmGQMEnjT8f5YD6UUfEB+/5jAQ2lT9q1a9cSSyyJZMjH+73wwguT3TRVXioHQ5BsyZv4fkcLrcbs44v4yyfrxdAv3Uo8aclOQGFoo+lW+eGPF/Y8YSg11UhBeRC0De+vPCRALj/iIkseZMmSJc4zzzxj3QNMNyNJPDhmG8cMx0NCYTCD82g9v9MVeFjSYEYpF+UjPzx4ajpAG7gv1kFg0IKX9VR+RsIYLcNyYJZpOyGVYzQH88mgDfemrBDKdCHX+IoQLSWIYMBzkj+f9zKQwZ9w6C5RMfihGOXmmbEODJ5Qfio2ph4LAHCsGMVisIgmgjiYcUbO+DyVvHkRkHQAC4mcxJO/PGUhdD6ZhDqdSSYCabg5guPhOWafc0CmmWvaF3S/4DXOB8vCsfYzLStxqFDkHRQO5eO+IlH5Ad1Lz0McQfFUZo6DwueYff854gPljUKQr86zT1m5Rr5KJ0ieFSIZ6IZklAlIp0Aa7VMIjslP54MF45wEpWPFUzqd5xxbgWs8dFAYxJEwOK8AgnnqWdlXPv7zKjehLJJJ4ydY9whulbegdIDzHBOPc9xLzyaEpU+HUiQDTumGmWTihx4YKGsKrX1/If3xgvcLnlMabYPnlc4P5QGC13Ws64B95atjbXUumA8IiwfC8gteD8Ifxx/XD6Ur63oQoSTHqF7IzBbHKGjEJBcBYpKLADHJRYCY5CJATHIRICa5CBCTXO3hOP8D6UHh6/8KIS4AAAAASUVORK5CYII=;" vertex="1" parent="d3MNBODYQ0l3beVv2zK8-9">
          <mxGeometry x="35.2" y="257" width="69.59" height="88" as="geometry" />
        </mxCell>
        <mxCell id="d3MNBODYQ0l3beVv2zK8-14" style="edgeStyle=orthogonalEdgeStyle;rounded=0;orthogonalLoop=1;jettySize=auto;html=1;" edge="1" parent="1" source="d3MNBODYQ0l3beVv2zK8-11" target="d3MNBODYQ0l3beVv2zK8-6">
          <mxGeometry relative="1" as="geometry" />
        </mxCell>
        <mxCell id="d3MNBODYQ0l3beVv2zK8-19" style="edgeStyle=orthogonalEdgeStyle;rounded=0;orthogonalLoop=1;jettySize=auto;html=1;entryX=1;entryY=0.5;entryDx=0;entryDy=0;" edge="1" parent="1" source="d3MNBODYQ0l3beVv2zK8-11" target="d3MNBODYQ0l3beVv2zK8-7">
          <mxGeometry relative="1" as="geometry" />
        </mxCell>
        <mxCell id="d3MNBODYQ0l3beVv2zK8-35" style="edgeStyle=orthogonalEdgeStyle;rounded=0;orthogonalLoop=1;jettySize=auto;html=1;" edge="1" parent="1" source="d3MNBODYQ0l3beVv2zK8-11" target="d3MNBODYQ0l3beVv2zK8-27">
          <mxGeometry relative="1" as="geometry" />
        </mxCell>
        <mxCell id="d3MNBODYQ0l3beVv2zK8-11" value="" style="image;aspect=fixed;html=1;points=[];align=center;fontSize=12;image=img/lib/azure2/app_services/API_Management_Services.svg;" vertex="1" parent="1">
          <mxGeometry x="430" y="25" width="65" height="60" as="geometry" />
        </mxCell>
        <mxCell id="d3MNBODYQ0l3beVv2zK8-18" style="edgeStyle=orthogonalEdgeStyle;rounded=0;orthogonalLoop=1;jettySize=auto;html=1;" edge="1" parent="1" source="d3MNBODYQ0l3beVv2zK8-6" target="d3MNBODYQ0l3beVv2zK8-11">
          <mxGeometry relative="1" as="geometry" />
        </mxCell>
        <mxCell id="d3MNBODYQ0l3beVv2zK8-27" value="serverSide" style="points=[[0,0],[0.25,0],[0.5,0],[0.75,0],[1,0],[1,0.25],[1,0.5],[1,0.75],[1,1],[0.75,1],[0.5,1],[0.25,1],[0,1],[0,0.75],[0,0.5],[0,0.25]];outlineConnect=0;gradientColor=none;html=1;whiteSpace=wrap;fontSize=12;fontStyle=0;container=1;pointerEvents=0;collapsible=0;recursiveResize=0;shape=mxgraph.aws4.group;grIcon=mxgraph.aws4.group_on_premise;strokeColor=#7D8998;fillColor=none;verticalAlign=top;align=left;spacingLeft=30;fontColor=#5A6C86;dashed=0;" vertex="1" parent="1">
          <mxGeometry x="282.5" y="270" width="360" height="383" as="geometry" />
        </mxCell>
        <mxCell id="d3MNBODYQ0l3beVv2zK8-3" value="" style="shape=image;verticalLabelPosition=bottom;labelBackgroundColor=default;verticalAlign=top;aspect=fixed;imageAspect=0;image=data:image/png,iVBORw0KGgoAAAANSUhEUgAAAQcAAACPCAYAAAD3Px6mAAAAAXNSR0IArs4c6QAAAARnQU1BAACxjwv8YQUAAAAJcEhZcwAADsMAAA7DAcdvqGQAAD7fSURBVHhe7Z0HfBzF2cafu5N06qfeu2xL7r13Y2yMO2AcSAidYEKHkHz0BEhCKIkJJQESQjcYYhtX3LGNe++SZUuybBWrd53affPM7con+WwsW+Wk7P+n0e7Oltsy88z7zszu6FxdXS3oRDjr9fh49M249YcFSoyGRsfAZDLhjtmzMf8//1Fi2he9Mu001NTX48tTB/BC32uUGA2NjkFpaSnc6xynrO504kBWZ55Agk+AsqSh0TGoFwWbTpl3BDqlOJjrarHqbDLmJQ5RYjQ0NJpLpxQH8m3aEYwIilGWNDQ0mkunFYfy2mocLMjC7V36KzEaGhrNodOKA3k/eRcmhHZRljQ0NJpDpxaH4uoqhLp7IdGkVU5qaDQXg5OT04vKfKeBYvBQ9+EYHxKH5/evQ2ZFKeos9cpaDQ3HpWdMLKprapBTWKjEtB+dqhPUsMAozOo6GFXlRXgveYeMy6ksk1MNjY7AqD59EBcajk++X6nEtB+dQhwmh3eTIa2sAAvTj6Cuvg7nNFHQ6IC4uRjx8E1z8OoXnykx7UeHrnO4s8do/HH4DUgMiMKbRzbj81P7kVVerAmDRoelstoMg8GgLLUvHVIc7uwxCq8IUTCby/DOofX4TLgQZ4Qo5FdVKFtoaHRcjLXKTDvTocThDiEKLw+fjXPCfXjv0AYszziGs2VFyK8sVbbQ0Oj4VAvDoVdsnLLUfnSIOocHh8xGsJCxVan7cbqiCIVV5SirqVbWtgz6PrOhD+8NnX8MdMEJQr6dZXz9vmWoXfkHOa/RuYiJiUG3bt3g7u6O/Px87Nu3D2Vl7e+STug/AAkBoXhvzXIlpn1wWHEIdvfCnJ7WNyu3pO1DQVUpcitKUVlXI+OuBn2fWUIIekHnFyuEoBvg4gJ4+EFn9BB3RMy7uIutdPIPFYUw/y5M7qfR8fH09MTPfvYz9O3bF35+fhDpH3q9HnV1dSgvL0d2dja2bt2KJUuWKHu0Pe7inH4zYw5+//WnSkz74HDi0M3kj0ndRsFZ74QFRzfKuPzyIlTX18n55qBz94WuyxjowxSLIEixCDz8hQYIAdAbzwuBStO74QSYH3RTFjQ6Mtdeey0mTZqEgIAAeHh4SFFoSm1trXw7cvfu3XjzzTeV2LbnDz+7Hc8v+FhZah8cRhx6h8RjTEQvlNSYsS51l4zLLMmX08vhvBDQIoi2CoGbyNRuPlaL4HKEwB6aOHQKJk6ciPHjx8PLy+uirQF0LwjXV1VVYfXq1fjmm29kXFvzW2E5rDy4BwfTTikxbU+7i8OI6D7oFxiDcqHWa1O2CwuhFrllRcpa+1iFYDT0oRQC1hEI18BVZGB3VQhcr0wI7KGJQ4cnISEBM2fOFGXF+efo5CQerA3Ozs4XiAYtiJdeeqld6iGCTT74xdiJeOO79hEn0m7iMFyKQjTMFh1Wn9gmReFc2YVdRnUs+buqQiAsgkAhBG4i40sh8BQyT4tACEJLCIE9NHHo8EyfPh2xsbGwWM4nDJ3OJr0I1GVvb285JRSLr7/+GkePHlVi2pb2di3aXBxu7DMJfp4BOJOfhkPZJ1Bdd6EoOE36nRQCBHUT4mArBKpFYOMrtvbZa+LQ4ZkzZ460DC6F6lLYWhTcZ+3atTh27JgS07bQtVh6YBeOpqcpMW1Lm4kDRcFXiMLxtD1IryhBqdEP5qC+0LsFwFJTiYp9HyhbAsaXT4t/IkO2tRDYQxOHDg/rG2xxYetUE+yJBystFy1ahMrKSiWmbQnz8cPNo8fjb0u/VWLallYVBy8RJvYcDx/fWGyo84SrdzgKauth9hbugdEbBjc/YQ04ozZzN4pXzLPuJDC+UcKnJZw+JaI90cShw9O7d285VUWhaSsF42tqzjeRc5mhsLBQ9n1oT96Yeyee+OojZaltaXlxMEXCNXKUyPgBMIYMRJBfmLjR3jhTXS3rB3RCDHROwj3QKQ9IZ0DN6c0oXnqXdVlgfL1IPCGjJg4aLQKbLtmHQa1wDA0NlVMVfvW5R48eGDZsmOzvwGZMuhIUh/ayGlR+NW4yTuXlYM3h/UpM23F14uAthCBqpBQCnQgG/27QuXgKV8FfyLMBehdhO1AEWNljUxnUyD/QOwlx2KKJg0arwXqE2267DT169sHp9FP44IMPpMtAKBqDBg3CvHnz4OruKZNmVWUZ3nvvPWzZskVu054EepvwyITr8eziL5WYtqPZ4uAx6EEhBH5CCBKEEHhA7x4gM7jVInC3CgGRYnAZh9bEQaOVGTduHB5//HF4m0yoEGLAeoSPPrKa6uz09PnnnyMqKgp19dYEpxdpOCMjAz//+c/lcnvzzIyb8cGaFW3+tnFj5+sncB/0a7j2vQ3GhJlwDh0Ap4BEKQ56o8kqDBQDfnFJfnWpWZqjodFqTJ06FTHhQTiZkiI7Qc2dO1eKAgNdiV6J8dKCWP3991gshMPk4SLjuM4R+GTLetw2cryy1HY0Sxycw4ZIq0F2Pb5ACDQx0HBMunTpgqST6bK/wp49exAXZoJXSKRcx7oGH3c9fvzxR/leBd+pyC8sgZuzDgN7dZfbtDcZBXmI9A9UltqOZomD7HBEd6FR/YGGhmNDCyEzKxtfffWVFAH3/BN4Y4o/Pr0zDjP90mDMS8HevXuxauN26U5UmmvgyldwXF2VI7Q/C7dvxq/HTVGW2obLEocx/W6UQUOjI5Ii3InBfRNw5swZ3BCUAUPyEsyeMRbTZ0/DiF4e8Ej7Co/0Kse06EopJHFhPnB3NWDTDus7Po7AnjOp6BrcuJWltbmkOIwWgjBh1H0oLDuHpNO7lVgNjY4FWyfivOvx1X19cM3gALjF9oZnRCKMod3h2W00nAJjMLy7uyiZg+U2ptObkHZoLw4cPqIcof2pqqvFtzu2YN7YyUpM63OBOOjcTEIUbpDhRG4Kjp3YhBMZ+5BTkK5soaHRsZjVpQ7VOz/EdWP94RUdA4NHPVCfaw2GKsDLA06RsYjvXospE1yA/IUIOPM95o0OUo7gGOzKOIWEkHAEulmbYVubBnEI8I3E+JH3YmSPKVIMGLKzjyEr5ziqzNoHWzU6JnMHB+OX1wTCyz8Zzv5sIi8Gak80DsgAXEtgMJnh7GuGp7cZAWEncc+YMISZHKfegdbDPzetxq3DxykxrYs+IqwXxo24B13ihiP55BakpO1Edn6qDKhr2U+xaWi0NaO7+iE2VlgKZV7QuVaKNH3UfnA6ABhrUJrrAieDLwzBpQjydoGHs2N8CVrlWNYZeHl5ontElBLTeuijI/rhROo2pKTuxFlhKWTnt9/HJTQ0Wppdp4pRX+IK5+h8lJ51ByzCCnbLaxxcCmApcBWrfGGMEJZFeBZQ6obkjDJklgi3w8H4ctsm3Ny/9ftg6JNStuBs1hHkFbTPa6EaGq3J8sN5+O+PRSg+aYAxqFxYCQaUppqEGATJIOcLAwGTEIWYDLh4VqMsrQZFmV1w1Gcsyqub/3nC1ubkuSwcy8jGbf1HKjGtg14TBY3OTF5ZNV5dkY6THnehPCMS0NXDGJ8LBOTLIOcjMqET4lCebEFRSm9UeNyPk94z4Z0wSjmK47EmeT+6B4chxtNHiWl5mvVuhWn2AjiHDQDqW3DUDe3dilblxoFBuHmoSVlqTEFRDdYmVeDbPeeUmM4JP+Sybt06ROiK4Zrxb8D1B3h2FYnLvVo8XCeUHRdpsLAHqiJvgLNXIuAdjjMFpSgqLsWzT/9W9qp0RHoGhWNm30H445rW+VJ2s0bZdu1+EwxeocJva8Fcq9Ojvvg0zMnnL5BfghJn5hg9svXCEl3xirLQ8fj8V/EY1ScSCd2jkRAfYg0RJiRE+yMh3IQ+oTqcyK5Cap5Z2aPzMWDAANx6660wBkah3hgDc3kIqs+ZUJ3tg8rcvkIfrhfWwxzUhQwUwhACi5MLXJydUFhUAoNe5xBvZ9ojt7wUkcEh6B0QhkPZZ5TYluOyekhqdEwGRHmge5iwwPxCAE9fwEOYoAwm+tiBcAsNk+vn9g9W9uicDB48WH7gxVxViSrvaFSHX4+qkHtQGfyYnHK5JjBBGKrCgqiulkH9IMyAAYPktCm0Rjj2RXvz/eF96BUSgd4+Lf8MNXHoxAyPV/xRY5O2eidna2C8my+GxDlOW35rwC9B8aMtZeXlMlTqXFDuEYQyz2g55bKMF9vYBhIQGGD37Ux+OWrkyJEICmrfjlL5pSX4cv92zB4yAi3dNUoTh05MmI9NXYnty3K2L885G+HdiT5XERgYKMenUOGQdwz8vLz6mjaDaiEw2Mbz1W1O1c/R19XVy69XN4XisGPHDtx4Y/u/c3QoOwMrkw7hrtGTlJiWQROHToy/h4uwDFqvNtsR4Zemc3NzlSVIodAbnFFeUQWz2fyTgZmeU25PaoU49OvX74JPy5GDBw/K4fQ4klZ7sys9BdmFBfjVqJY7F00cOjGB7k7CMvhpl6GsyrF6AV4pHLiGmTUpKUmJEeIwYaLM4Axl5cK1qFAC5+0Ec7WwGsSU26u4GN0wbdo0Zek8FJLvvvsOQ4cOld+MaG/WJB9BTVklbu4zVIm5OjRxuBSNxz1xWGb0DcR9YyLw5DVRjUJsgLLBTxDka8AbN0XJ8IfpsTJw/1uGhChbOD5DhgzBwIED5cda1C9JMy4iIlzOEykStdbgZNDL4OHhLqeqgKjBFi5TZFR43O7drR+COXnyJNLT0zF27NiGsS/ai6LqSixPOoAunkGYGtNHib1yrqwpk7lGfjj26oNO74S64nT7TZmEGbSdgyM3ZT4hMvG8iYEY190TI7p4YEjPMAxJ8JMhOMgdzu4ewrVgt+GLtAvrDXA16tEzzh/9ugWiX4wPBnb1w4AuvhgYpUfXACNWHy1WNnZMWM9w0003yToAuhTFxdbzvf/++xEeHol65dpN3p4ICgxAYIA//P184ePjA18ROMqVyWSCn68PjEYX1FabLxAIN3EPs7POIjU1VX6wtn///vK3KioqkJeXJ5tLjUYjTp1q39cPymurUVBehokJvVBRVobMihJlTfNpVicol6gx0Lv7KUsthBCI+tJsVJ/ZqkQIXRh0i0y0DgHFYcdnyoLjkfrnAQiJFiU8xwolzk1KL36OnS0TFxMHUmfTqa3OprtwdTkqMtIw+k/JOJrtuG/mzpgxA5GRkdi+fbscAPfIkSOIj4/H/PnzYRBuVVCAH7yEALi5GkUGdhWZ++Jpq7q6Wmb4iooqnMs9J90MlYyMdNx3z91ynm4Em0i//NL6VWiO3s0h9zhCFq2J9qZ/WAwmRHfDphNHsSvvyvpAtPy4FRptSuX7g4GAGMDb9+ICcClhIE3GjWxE6n7Mnp+CVUcuHMfUEUhMTJT1ARwNm5+YX7NmjbQcHn74YUyfMQshISEI8PcVl3iJa7QDWynM5ipk55xDccl5YXz37flYunSpnJ88ebJ0YdavXw8/Pz/5IVu2cvDr1o7AgPAYjI/qhh+EQOy+AoFoljjoIwcocy1PfcZeZU4UdIHWEYochdrcQ8qc49FIHJRPq7cY7Ah0ah9u+vsJLD9UpEQ6Frfccou0FvjtR45StXXrVjmIzfvvv4/YuHjhRgQK40kvM3tz4X5lZeU4LY6tWhA52Vm44/bb5DxdEbour776qlxmvUN4eLi0YNrbvVAZGB6LsZFdhQVxBLvzzyqxl0ezxMF57rtAUKyy1HJYMo+j9tvHlCVx02d8Yk2YDkLx4l8oc45HW4jDzL+mYPUxx7McOLT+mDFjsHjxYtkXYeHChXL0qttvvx0PPPAAQsPCYKm/esOYbkba6fMl7zt//xuWLVsm5+nScKh+LtN6GDVqlOwrwXc5HIWBEUIgIrriaFYWVqVffkHXvDqHR3+ALn6IyM1KREsgrL364xtQ8871SgTgf/8R6NQKyXZGp3NG7ttxypLjkf16f5iiogG/oJYXB5riwq2Y9sZJrEsqUCIdB7VzElsLunXrJl0LNzc3fPzxx+jTp4+sRKyrv/pXrg16A04KS8Ce9eDv749nn30Wjz1mLdzUVotdu3bJikpHYVBEHEb5RiLdItyew5f3Ilnzi2cKA9NgSwV78K1PPlRHCA5OeVUrnSeFQamryC+3qbB0EIKDg2WfBlY+ckQrmvJk9OjRssOSi9HYIsJQX1srj+Phbq3wNTo7ISoqUjabkvz8fOnO8HwIx9dkvYO67CjsPnMKazOOwxNOuKPH5X0HwnFsd40rotxsU/PODG0vXAp72zOQ8hKYa1yQml9hXXYgKADsycjPzXMoO07JrFmzhKZZZKZukSCsMU45RD+FwclJD2cnQ6Mu1RQEVSzoUtANsTekf3tzuCgH61OPo8Rcgdu7j4Sv8dL95jVx6OAs2FUIVJUArI1mhZO9oGb2pjBeCIDdffLF8Ypz8OEPOSiudDzLwdPTU2ZCvvikvkFJE5/uBJGZugWCeixCYSAUH1UMCN0HujWEdR6sIGUrBl0cR+NseTFWnz6KjNIC3JowDP39wpQ1F6KJQwfnk+3ZeOw/x/DeomP44Luj+Gp1UkPYc0Bk8pLcS4tDVQUyU8/J7VduSWsIH3x3TB7372szlI0dB2Y6DqdfUlIih7NTe0QOHz5c+vtstqyvq2nRwP4PPK4aKEpqL0n+pq+vr5y3fU+D7oYjUlZjxvozx3C8MAdDgyIwN9Z+b0pNHDo4Z4qq8I+N5/Dm91l4Y1UWXl2R2RBWHry85sf8Yovc/pWlZxoCj8Xjphc43kdgmOn4SjVNePr2quXAfg4qZiEY9fV1LRZUAVKh28DKRxIdHd3wFiehaDE4OusyjmLHuTMwCLG7q+tAdDM17m+viUMngSLBjHwsu7IhZBZefl0Bt9+TXtIQHFEUbFFfraZIsG8BoWnvrLdWQuotLecK6epr4OHauPWMvzPl2gl45rdPoHtiQkMdA89HtRzUb0I4MvsKMrE6MwVZFWWYHN4Vs6N6Kms0cdDooDDz1dXVydaKuNho2ceAVoSTrh4eRic5ZaYmnF5JUPeFpQ5uLnp5XDUcPXYcmzZvRnlFJVasWCHdiqefely+c8E6Bwa6Ih2BvKpyrDybhAP5WTAKd+2OLgPQ1y9UEwcNUQpXOn6TrS3MeLnFFTKwJ2JBQaH8RqSvl/W9EjejkqxFptaxWVxMryQ07KvA4zLUWSxYvnINKsy1MrCL9eHDh3E2M0t25WaLCcWro7EpJw1rs04it6oCg/zDNHHozJSyDwRhfwXhV14QFM5VnM8AHYFJCd64uYebDKPjPTD/H//CzTfOOC8KtlyNe2FnX/eysyja9rUQpALExcVJl4aVk6xz2L5rLzYLa4IVoyNGjFD26FjQilh+5jj25Gdq4tCZ2XtaqXNgcyUxVzUOjK8qxeEsx688U3l4QgQevTYa9w7zkOHxidFIrD6CTZusX4jWC81rjUAoDLrji1GdtF7WeXBo/2PHjiEtLU02b9KtWb16Nb799lvMvHaMdacOyv6CLE0cOjOn8qqw9rAQiKIcoCBTTLNkKM7IUMJZrN2bi8UidAQeGh+BB8dHYWCvEMQOHI7Yfv0wKNYbvx4VAOPJ1Xj9nY9QUFwOo5PI0LC0bBACYTy5Brq8ZHTpGiTrOpKTk+X3HSgSDHz5i+Sd2I3x/pl4fno8bh7Ucb/s3fx3K+KG4KLdnq8Egzhc03cr7jsAncExepjpDK4O/W7FTzE83oQRXRt/46HMpjv0wcxqbDvp2B9zIXNEJntlZjx8PJ3h2m8y4BUF1AnrJ+cIqk7uRVFZDZ5ZkQVL+EDcPHUChgy1dlKqqW2ZF4GMZUJcN/0Z3v6+MMb3x6C7P0ZueZ1sMWHFKGFdSKSXAc/NjMHkgb7Qm52QklOJL7afxdsbz8ptOhKaOPwEHV0cOjqJwW4YFmPCfcJiiPABfBKHAlHDlbWAM6pQc3ofio7vwJki4JcfHoZ/VAJmz56KuTdMt61auSoMRzei+vjnCOvdEwgahO/W78fcZz5V1lqZNa4PbhwRixkJxah1qoWzpQZlhU4oK7Jgxtv7cFwIRUeiWZ+JMwy7EzrfcAgrq+UQjo0lLw31uz5XIoRvN3AedA7yJSh+xq5i53xlSaOtGBDlidn9AnHToBAxDUJMkBucwuPgFjsEBl29KFNqZSAGr0DUF52Aj8FJvjn5+aZjOJqUgvz8AowcNhjOTjrohV9wNaE2aTMs5enwiu0hEqwOCVG+8uWubuG+GJgQhhnjeuHO6YMxfmgC9IZiOBuKYHA1C/Wqh1OlOwora/BjiuNbaLZo4vATaOLQ9oxN8MUj10Thhv7B6BvlBf8gT7iEdYdbdB+RXpxEghGmq20QGF2EC5GfjXCTERuTC5CWXYjde4UFKrYfMbS/3OZqMBxfKqwUM9xCuwhTV4iSCCP7xqBffIAcbvC6YV0RHOgqEkwtdGwGrU2XwuDsWo+aAlc4Cwvmi505ytE6BlqFpIbD8cS10RifEIBA4Ua4GmvgGt4FzuGixBYunpoxUVPaOJhi4OrtilBfN9w6+Hwl4HsffISVa7fAzWiAi/Li1JVQX5Ejvz8JS8X5UFuFUD83EcQGtYXWoKsCnMQ6IQxwrhMXUAOjnw5dgj3gx3FEOhDNv1st5MNpaNgjzt8dQ2J8hGlukcLg7FQjR71GnfDXKQKcyiBMdttgscA5MFzuN71vMLoJN4SwM9Jf3/kQdWXlQhx0UiCuJNTUKvUF5qLzoUEohCA4cz2DWMZpqzAYhEDohfUQXAqTm4t0kzoSzRKH+jP7rTPciyKhCYVGC+Prbq2IrnephcXdBZX1IsOVZ10oBiqi9JbBLPx57wgYfT0QJqyHJyZFKxsAR48eFSEJBgPF4cpCA9Xit9UgBUKxFNRgKRAnnytFAcZqIRLCzfAtgIsvcMfIMIzu2nFGIGueOOz4GPX7F8Fy9iBQfFZECHXkEdSgCYbGVZJaYC2h65yE6+ApMpinSGOVR4UAiIyoCsHFgsAlUAiEtxEz+4XgnpGNh7Dj4DWEImEb7MWpgVhsx36oE6IlLAQZqsU50WJgoEgw1GdYLQZXIQy8BgqECK6JuegSYRSiJdwf5VCOTrMqJC0lQsGzjsGSdQT16XthEZaEJfVHoaBlQkkroaNYuLiLo4qHYCsUlxIMsalWIamhUllTh3tHh8HFwwJ3f+WLSjqR+epFSe1iFCIgpvXMhEqAzduSrItwcoWTczWqi8swMNILWRUGTJh2I+ZMmwiju9hfQJGwbYmwF2e7rjr7FMxpP8Iz0B1sYbfoKWA1Im2UQuckzkFXLn5bxMnpOWktSGGgSChBZypGvThcWE0gTuWU40gO3Q/HplniQCxlubDkJAlh2If6lM2oT/4BOJcilg+g/rQQjLMHYEnbKu6oEIyaip8WDE0cNJrwy6FB8PbVwy2IJbJIIAY2j7EZUGQ0agGThkFkPqYtvjcimzRtgrMeOmFJONVb0DXYFdPveBQ+gdaPsagZ3hZ7cSpcV3Z4M3TFp+EZ5iLEoBw6tkgwGCkGIpMbSsV5iHkXYUlQDGgt6MV5CdeoYapjnUgZqpND4OFiwMK9QkQcnGaLgz0sxVlWwcjYKwRjkxCMjVbByDgorKx90g2xpG5TBENYGHzTzfm8YGjioGELTW+jpwVu4SLTMYE4URREYPoRVgF09O9ZN8HMJwREDSJZcZQujtplcBJpS18Bt5pakV/NcIvuy0M3m7KCUlTuWwCjsQ6uPrQWRPp1qRYiUSPOhelYBCkIYpnWAq0GLjOeoqCKBadlrqg+5Y9jZ8ux+IDjd1lvVg/Jq0UfNQg630jAK0iYWcIfNBigi+gjhOVUo3ErrJ+mp/0mbihRp+2A1kOybekT7o7Vjw2Bc3Qh3OMKhMtq0/xXJzJ8jeJGOAdal51shmesEQWOuQoWZfh8C8phLrCgLK8C7iPuhWvcoIZ6hJ+i0lyHdZt3wHxiB8a4H4N7uAs8TBQnJeOzwpGwboFQAAgFQZ2qcTUGVGZ6Q5fth9xkVzz6dTJWHHKcz9ZfjDYVB3voowfLaX36Ljkl3te/C4O3EBFnDxg8Q8RGNn5lGwuGJg5ty5OTI/HktfEwjU21ZjwKAIOKrVhUiXmKBLHZxlJkVuasFJ82CKMiAP/KjMSIwQPRr3s8PH29lLXnoSCkp6biUHIajp9Iw7LVmzArNBMPXNsL3t2Fi6wXoqMKg7QOhAA0qVtoEAcKA0Uhyxv6Ai9UZHjjaGoVFu/N7jDvWbS7ONjDyT8BBp8Y4dOZYPAKFyacUSzHQuceIE7YTwhGcJsJhiYObctrN3XDbcPCYJp+xJrxasVzrhUZv17J/NU2z72pUKiITNmwvaCiwAU1WZ6Y9e4+uIb2wLC+ifD295Hdnz09PFBWXo5qs1l+uCXl+AnsPJzcMJzd0gf7Yki8L7x7K82TRLUWVGFoai0I66Yyywv6Qk9UnDbhWKoZP5woxN70Yiw76PgWg4pDioM9KBh6z1DoPYKEYERYBcNXCIYbBcPXKhjq0P6khQRDE4e25YFxkXh+Wjxc+p+BW5RwK1hSE9UyUEWAmd/WqqgRbiibA1RsxcLsjOIjfnh/cwaeX3J+BGyR9uHl5dXwOXl7HP/DcPj462HqLs6lqbVAKAhOtCZENqIwWHQwHw9BRYo/0jNrsOpwPvZ0MFFQ6TDiYA8n/0TovVTBiJT1FAbfOCEY/ucF4yotDE0c2paugR5469YE9O3iBvfoYsCjUsZbRCY0ujlBp6sRGVJkQheRIZlJKQL2rApbcah0RfH+QHyw5QyeW5yiRF4eJ14eAffAOvj1UjK3WuGohgargdaEEIZjoag6GizrFFYfzcOCXdnW9R2QDi0O9jgvGMGy3kJaGCbhorgLwTBSMILEVYvEdJkWhiYObc/EHn4Y3cUPPcPcEeHrBjcnHVy96+Du4QIvX7PVrHczw+JZBVc/UeKrFX+2QqFaFSIDV6UEwpzmg7s/S8Ly/VnW9ZfJD4/1R9c4d/gOPdPYWlCndDUoUuKnzEfCpDB8tSsH76w/jeTccut2HZROJw72cPLvbhUMYUlcaGH4wCAsD9g2ncq28/PkvZuozGm0JUNjPREf5AkvJz083KzPx9fDiNgAV3QJ8kBUmBPcY4pg8S2Dq68QCTWzqhR5oqrQFZXHgpCUbsaUtw9f1H24GH+aEYc7x0TB2P0cXKOUkcYbxEFYMURYLOY0f1QdCpVuxG++SUJumSJYHZj/CXGwh1OAVTAMHiHQCwtD7+QKvSmqsWAIqtM2omTlA3JewzHoGeqOflEmdA/1xKguJoQG6xAcLTKsqeJ8hiVCHCrOeCFZCMNf16Zjyf7m9y3gb73z8x7oFm2EGwUiUFgDaoVkrQE1eR6oL/BE7hFPfH+kEG+tExbDuY5tMaj8z4qDPZwCelgFwzNEuCRRMq4qaQlq847KeQ3HY1a/IHQNckXvCBOi/F3h5qyHm0GHyjoLiipqsCe9FDtTi7F4/5X3SORvzBsXgd6sB4koEeKgCFCJGwpOueFEdhXWHs3Df7ZmdwqLQUUTB41OQYJwM7qHe8DTaIC3EIiSmnqZUb8XZn5LMLmXP8Z19UNiqBs8jOydCeQUV+PQmWIcyCxvsd9xJDRx0NBoBsPjvGByt7aEpOVW4XhO53Ah7KGJg4aGhl2Udh8NDQ2NxmjioKGhYRdNHDQ0NOyiiYOGhoZdNHHQ0NCwS7O+BMVhxXv27CkHDSXXXHMNIiMjkZ6eLpenT58ONzc3xMfHIzY2VsZPmTIFPj4+yMzMlNuMGTNGDlmel5eH66+/Xm7btWtXhIWFyWHNq6utnUg4YvGwYcPQp3cvREREynX8zPh1110n9+egpS4uLvIYHh4eyM7ORkBAgDwnHsNoNGL06NHo1auXHCa9pqYGJSXWD4XynNTfVM+d1zZw4EBEREahqKgQlZXWF340OhZ8/hUVFXIUbMI0MWLkKJw6dRL9+/eXw+arA95GRESgX79+Mg1wP6YvvqFJuC3TIL9hOXLkyIY03/QYnZlmNWX+4x//kBlu1KhRKCsrw/bt22Vfdd48ZsBNmzbhrbfewoQJ4+Hu4YlrJ06UnwXnu/G//vWv5UNYs3YtsrOy8Pjjj8v9z507JzMtReWbb77Bxx9/DE9PT/zqV7/C5MmToUO9UDAXfP755/j73/+OdevWycFLJ0yYgL59++K///0vduzYgVtvvRVz587FH//4R9xyyy2YNm2aFI4qkcmdhYj85z//wXvvvSev4/vvv0doaKgUlEmTJsljPfvss3Kdq5sHvluyCH/+85/lskbHgmnh+eefl8+YML3Of+ttDOjfV6ZNFhbz5s1DUlISbr75Ztx7330ynW7btg2vvvoqFi9eLPfjtixQPvnkE3z4wQd4+JFHcPz4cfz73//Gxo0bMX9+5/90YLPcigMHDkjVZOlPxY2P74IBAwbI0p+lMUti3uSu8bEyjtCCoCo/+uijcpnx0dHRUpG5fW5uLpYuXYpjx47Jh8PMevvtt+M3v/kN9u/fj68Xfit/95VXXpHrKDTDhw+Hv7+/fLgmkwnjReYms2bNklbEzp075f6BgUHYJgSIx6GgqPD3aH3EiPMgf/nLX+R1/etf/xLnk4MXXngB3bp1k+s0Oha0CL29vZUlwN3dHd26WtMin3mcSLNMG0x/vr6+iBPpk0RFRctvO6hwWxZ4THsbf/gBL7/8Mu6++24Z/8UXXyhbdW6aJQ4s2Wlus1RmSZ2aegrFxcWyxGbpe+5cnsyYTaFJduedd0kBqau19ktXzb59+/bh7bfflpYChzL/xS9+IY/N4zLu9ddfx1133SXXPfHEE/joo4/kfmPHjsX48ROwdetW+AiBYKIYMmQI9uzZI9fv3r1b/LdIl2b9+vVS7VX4exU2bgNdJQoIrZOvFiyQcTxXjc6B6qoKFxo7d+yU6WTOnDnS/aizKTQu9sYmxaRLl2547rnn8OKLL8oC7X+BZokDb8oR4Saw5KaPzgzHTEXLYOjQoVi1erWyZWPoCrC0ZqY0ujijtu78a7UGg/VVXFoRFABSIx4YxYPWAYmKipLruO0PQsVZ/3DjjTcKQegiXQ0uP/TQQ/IYNANZKixatAjfCjFjvQRdCro1l0KnjNWuTm0tDY2OBd0Be9B1pWVIS/Gll15GYmIiLPy8vaBWFFq2FodwtxvSAAueHOH+0gVmXdb/Cs1urVjw5ZfSNeCN/e6777BaCELv3n1kxlzwxWdyG35WXq8/f2gq9lNP/UZaA4FBISKj11sHKxHQ7Zg+fYbMvLXiobIO4b/ffisrg+6991657uGHH0ZdfT2+FfHkxx9/lJaKQRx3zZo10s9kSVBWVoqvvvpKugTjx4/HVuHifPONdR9WJNnC89Mp50jLhtdEt4X1FDwOLRKNjklMTIx0fQcPHtxQqKgw03/22WciXSyUFmm98pGf/cKCZZpiwTdm7DhhKXSRdWKs/6LlkJ11VhZE74gCrmla6qw0WxwWLlwo6weYoTZs2IBVq1YhJydb+mZcJhkZZ5GeZm0F4HYUhaysLFlZyH1zsjOlAnMdReaZZ56WlZyfiofGCsk33ngDX3/9tczw9P+5jiY/K4nIl0Kg8vPzGzLwihUr5PKGDevlMv1C/ubTTz+NZ599Rro6qjuiwvM7ffq0nH/ttdfENeRIt4Xn86k4B7o7Gh2P5ORkWTCwsLnjjjtkOkhLS5Przpw5IyuhyW9/+1scOXJEplXyt/nzZR0EXdkHf/2gtIhZ+UiXs0+fPvjd734n09+evXtlndj/As0e1IbmPs14mvfM6HQ16LstW7YMJ09aP95ZLpZ37Ngu13MdKyn5YNhywX137dola4v54Fjqs36AJf6HH34o96dZuGTJEtnceeLECWlNULVVWGvMuo9VK1ciNTVVHpvbLlu2XM4zMXAf/tbBgwexYMECeX62lJQUy/PgOVLYDh8+LI9BS+Rv860ipNHx4DPn82fBw7RBkWfBdOjQIZkWmQaZRgifOyu4mQa4DwsRi8UiBCZJFkpMhwkJCbIVjlYE4TZ0TygenR3trUwNDQ27NNut0NDQ6PzQndIsBw0NjQZYActGgkGDBmnioKGhYYUtjqxjYYdAVvpr4qChoSH7crDXM/v5sKWQ2K1z8HY2or9fmLKkoaHRWWH38h49esjuAmzVUYWBNLIc/IzuiPIwIczdGzMiu+NPhzYivaxIWauhodGZCAkJkZ29unfvLjs0sq+PLVIcgt28EORuQrynCd1NgSgwlyOrogz9/ELxhwPWjkUaGhqdB/YI5kuTfL2AHQztoRsUFm/p6xOIUJ8QnC44i6/TDimrgH8Mn4UX9q9DTqX1HXcNDY2ODV9loDDwVXb2JmUHr4uhe27EbMuJvHQsPn3hqE6zonog3MMb7xyz9g7T0NDouPBFRrZI8Psr7DGs9hS9GD/ZWvHByBvw1O6VKDRrX0bS0OioREeEo0//AfL9Eb65fDn8ZA/JdZkpmBqRoCxpaGh0NOhGXDt+rHwF/XKFgfykOCxIPYhJYV3h4+KmxGhoaHQE+JU09nbkW6obt+3EypUrlTWXx2V1gnowcRgKa6rw+cnO/yaahkZngHULfNWcH4D+4IMPlNjmcVkvXr19fDumhHeDh5N1AFENDQ3HhR+7mThxovzIzZUKA7nstzL35WdifEicsqShoeFo8AO5/Hgzv9rOb6kuX75cWXNlNOvdis/HzMXtm76C9nVFDQ3HIjQwEL2FGxHXtascQqIluGzLgRwqyEQPL19lSUNDwxGIDQ/HtGuuQZCvd4sJA2mWOLxzeDMe7D1WWdLQ0GhPOEYLKxznXD8Fu5OS8Nk3i5Q1LUOzxIGdqItrqhHj6WON0NDQaBc4zN+gAf3lEJTvfrmgVT6I3Kw6BxLs7oWX+l2D+7Zahw3T0NBoW0KCAjFx0mToqyvxydfWoRdag2ZZDiSnohQVtXWI8DApMRoaGm2BKMgRGRKC6yeOl1/Xbk1hIM22HEg3kz8eShyBh3YsVWI0NDRaEw7r2K1LPMb16493FyyQA1m3Ns22HEhycT70Oh2C3DyVGA0NjdYiKMBfDjnZo0sc/vLhh20iDOSKxIF8nLIP8xKGKksaGhotDT/EEhYUhNlTp8hxOv+zYKGypm24YnHYmZeBcHdv+BvdlZi2hcOj+/n5KUttB0c74muvl0NnGnSV1xwYGKgsdS7YJHi18P4wbbQUfGmqe2IifjlrFpat3YDNmzcra9qOZg+HZ4u5rg5TIxPx4znruJi2sPKEY1aWll74FSk2w3BEY5pH/I4dE11R0eV/q5LHZp9xdhXlsHxtRUREhBz6n4Ptcpi+S5l3vCZ+tDMjI6NVR+zu2q0bXIUI2bvPLQXf7OOgs+yWeyo1FQX5+cqaK4MJn/eysLBQiTkPMxnb7jnsojrqemvC35slMiCHxrOFPj7HcOAQek3hufO9BQ7Zz7TI7zBy/ExeF4dqZJpmwcXhHn8KFiAs6AIDA8Tveckh+LyEWP3sllswbtggvPD6m636bC/FFVsOZHXmCSSaAuHt7KrEnIejHM+fP1/eYMKPWKoK/cwzz+DVV1+V888//3zDGJmXC982mzp1KubNm6fEtD58y429z7744gs8++yzcsj/S8GRmTkq+LBhw5SYlocJeN26dXLg4daCIs5xTPnMOMgsf499+K+Gn//85/KDpvYssF/+8pdYtGgRQkNDlZjWhSO4c0j+ptx3333ymgnvM9MvYXpmOuBAvWTKlClyLFimCfUlpz/96U+X9d0EWhoc2ZvbrlqxTE6nTZuGn0+fLr/WdM+Dj8rR5tuLqxIHwo/B3BTTU1k6z2OPPSYv9Nprr5VKunfvXvmmGNX1/vvvx8033yy3o2Coqs2HQGuD8JNWDLYwofJT2izJiK3ZzhvN37Hdh8P8Nz0GlV6Fx1LX07/j22zqoB5NodCxUojKzkGA1Xfjec724Df6yOzZs+W0KUxk/AgHf48lEbmUectrUc+P+5FbROkSKKyw/v36Nbou3uM4cY94Hbbnx/uj1+ulVRMVFSWPyevm79vub8tNN92E3r17y9Gpad3x98aNGyfvXdP7TS52HFso6jy32267TYk5D+/B0WNJcmBbzlOUiZo2eP4qF7v39rB3b3mfHn30UXz66adKzHmY+ZlOeZ20mph++XvXXXedTAe3CxHj+bCw4DWzToCFAe/nz372MwwdOvSSz5MwP3DAZ24bFBwmpxxl3mKuwYPzHpBjSLz00kvK1m3PVYvDZ6f2Y2xIHLycG/vXqsVAC+Kvf/2rnOeQ6LfeequcV/nmm2/kKNuEKv7nP/9ZZn5aFAwREZFyHRMiTTdmNpphpL7e2grLkoyWBIdI5z5M+ISDdHBZrZuguTpp0iQ5T3gsrid0F/hdPY6e/N2SJTJOhcen0JGjR47I427ZskUe95FHHpGJhomimzDx1RIvQMk0zIg8X65TMzUzJTP2ho0b5e9xBHG6WnPnzm3wW7nMfdTlESNGNJzf6jVrpCnLxERqhfnN6+I94rky832/agXWrV0rz48JnBmB96dXr174wx/+IO87hzzjdTNzcGoPlozko48+woYNG6QrxUTPe8fjPf300w3XzCnPg+uZ+Xn+6rOyRRVDe9bB4sWLsXfPLjk/Y8YM/POf/0SsEEVeB9MGhYrwnjNOFSfb3+K8mgYI3U/e26YwPfFZvPvuu0rMeVTriOmX4kDuvvtuzJw5U87rhEjxPhK6Pxyin5aVamEQtYC4GE899ZScUlg2b94o50lAj0RMGTxEfgD2OuX+twtC9SxXGx7qM9oyr/fIRnG7du2yEJEILedyc+V85tmzln//+99yvl7kbJFoLZWVlTJwH04Jt+N6smPnHrlOmKFymaSkpMhpbm6eXPfkk0/KZVGqy+nBgwctItE07PP6669bxMO2CAtFLouEYxHmmpzn73Bb9bdzxbmKzNJwHQwiIzScz//93/81xIvMIeP4+0OGDJHza9askesys7LkMs9BmJ1yXpS88rdFppbL5PTp05bf//73FmGqyuXrr79e7v/222/LZeEPW4T5Lfcl+fn5lp07dlhKSkoazonXLfxSixBhy2OPPy7juL26D89fWHJyXn0WhPdJvW7eG/W6GPhseK779u2T6x944AGLMLUt7733nuWPf/yjjFPvN6+Z269csUIuixK34Xd47cLiaziuECkZT3iNtr/JwHMifCai0JDzGempDdfKa+LxXnzxRbks3FOLEAo5z9/iMXhePA6fsRApmV7MZvMFvyUE3pKdnXNBPEN5ebk8Ju+pyvLlyy1CnOX8oUOHLBs3bpTzPCdRCMj9RAEn48gNN9xwwXFtg7AaLCdOnLAIN8siBFPuw3Nn+ggW69X0y+uwt39rhxYRB4ZvJ91u8fP0aljevn27vDA1I6ts22EVDd5QoehynnAfFT6Y9PR0ZcliEaWonPLGZWRkNCSUtNRUmdjUBL5N/KY6zxvOREt++OEHy6hRo+Q8WbRosUWYk3KemYwZUuVxkbnUa7ANqeK3CK9HWDYyTs0AzNzC/JbzhOtUcSC81oqKCjlPsWSCVhk2bJjcXrgqclmUjnJ53fr1cpkJUpRecp4IM9MyYMAAy8b1axsScFJyshQXCqB6TsIasXz22Wdy/rnnnrMIf1jO897xmlVycnLklPeNv6sGYWHIxKkKDNczIwlTWi4T3m9VIERpbTlt88wosjw2p6I0bTiu8KWVLSyWN998s9FvMqjMmTPHcvToUTnP3zh8+LCcJ8LiaUhXwt1rJLYUCt4P8vLLLzcIs7B6LvgtXtvWrVsviGfIy8uX+9mmX2Zk9X6sWbdBphWKDmEBQdF65ZVX5DKZPn263WM3DUzD6rM6fORIQ7ywRGTcY0JwQgODGu3TFuGq3QqVo0XncG1YV2UJEAlQTlVTuq6uXk779eklp+LBY/DgwXJeRdwHOWWll2ruE5qXRIiBNOtEgpPLFZWV6N+/v/T5aNqNF76w+gIK3Qy1NSFY+IYig8h5Mn78OGlek8wz6dJ8Y+04oatAk7UpouSU2/B6OAgI6zvof5MjwtWwbTXh+ajwHN555x2s32htiuLQYyKho7q6Wi7TFOaxAgKszYR0T4iz8s1Oug87d+5suBaeW2ZmJq67fpqs/yDLli6VvjPHO1TPiTXldIW43+rVq6V7o8ZzkFQVtVLX9pwJK1xZmcoadMJa++3btzW4hTx/3m8+E3LvvfdCSLacr6ysgrCw5LE5FcIq44l6HkR93vawPZ/TGRnSBVKhm6CmK7Ya2bY0ME19+skn8thPPPGEvAbeA7UC0RbWYeXl5SlLjakyV8mpbfqlO0T3jAhrRroj6rgPr732mjxH2+ZMISTK3KVhHQYraXnfXhWuk0pBQYGcxpi8cceU6+Evnr1tnUtr02K/9MrBDZgb2xsueoNcZgWWLenpaXKqPnQ2+djeSMKmIbJq1aqGDMqHzMRAjol9KCpCZeUybxTFgeQpzWtqQuSxVYFiIqDvKEpNmcH5gFVh2nfgsPx+PyuWuJ411L/77W/lOlvob3///fdyfvjw4Y18SwqSbXOTKjyEFU6sVNqyaYNcpogtXLiwod2avj+Ppzbb0V9nfUNosDWTBwZaK2iFOya3efDBBxtq0dWEqjaZ2WYgigXv54IFC+Q9UTOicPewYsUKOc/jqfNNoT/PzF2kNDeyBp4VbRQgknrqlJzymRDWqqsCtnXbDvmMeGz1Wamwkk1F3V6tGLXFVji2b9vWSCxsmxdZOWwL66tYFyJK9IZ9WFF4SjlfW5gW7BUEpFDJmCpskrY9B2EZyynfilTPlQWQ7XkLF1BOeW0cTMYerAdjYcNn8d3S5TJtqKh1KMt37MS6Pbvx0C9+gbCgYHjanEdr0qIydKwwF0MDrRWILN1UeMNYmWR749j80xTbhKMqNhOQOvgGRYLNX+pDMokHq7aVm4QA8AGoiYyqrQpFaFiY3Ee4KlgqSlnC5lCitjrwwZaUWDP4dMVSsYUVrKp48UGy1FavR5jcDa0sRI45qKzj+bPiTW3SZCIjrAxTYUXX2bPWa5w1ezaEL95w/a6u1ope4ecjX0mwM2bOklOV06dPyylr+FWEPywreCmmtHrUjGhbUmY3GRuxKfzMWHm5dT+14k+1eCi4RM1cvC7eB5KTfVZO7aGWhqRe3EdWHLLZjqWnbUZVLTkV9hlRoVBTyAmfue295z0YKwoCPm/1+aiFRFOyRBrtotznppw9e/4aqqrMwvp7W1mypmc2txI+WwqRim0hwfvB6+O1sfK4aesFW2K2/PijPFf2H3ns0YfkfVYLTRZ8TGe0Tg6eTMGLIl3MGj4CMwcOh0mp8G9NWlQcXjq4Hg8kDoOTTt/QAkGYIFkjrmZkdgrism1mI2rGZgJksx05efKk3JY3iRma/SOY2ImLs4tMwDweb/CQIUNkSwIfnvAlpTmuwv1Z+tl+npslEEcVprlIN8bHxyT3ZelqCx8Wa6JVk/q4KK3oSqjX869//avBVOcxmVFqlEzEc6VZT3eIx16/fr0sLehqEJ47v/fHUpb3IUiY3bauEzMQEyCtBa6znt8e6zolg7BlgKUM3RXVlGWTJ/cRfj1umjOn4Vwpcqppals6XqyjVlmTTPqjSMz8XQouryMhMVEu8xrV81Gn9tixY4cyJ0TxrjsamoVZuvNe8foIR3xW0wXPLVH8DlHFSc287F9ge+/5zN95+y15nJSUFPnc6SLZsxDYWsTrUC0wW2jZqqxes04KNo9FeI8pAhQlXjfTHtfR+rQVFa7j9dF6pDXMT8SrsAVpi7Ae+UzJKnEPmLaZLtSWsWsnTrygc9bbi75FvZsz7p46Db52zrtFERd2QUXE1YQ3R8ywDAyJkvOsQRcP0/LCCy/IZVaSiYQjK5e4zBpe8UAtIrPJ5YyMM7KChxVOwoQXz9cia8a5jjXDPJZIKLKSi8dmTT/X7d61S8YTHp+VloxnECa33I/7q3GsVOL2IlPLZZFx5DLPhRVQ6nZquOWWW+SxCbedPHmyjOf1iBLOIhKxDJxXj8madiF+FlFSymPzHNTz5TUyjtfAlgf1d/bu22c5d+6cRVhKsuKRCPPdkizuD7fn8Xh+as14amqa3IYUFhbJSi22KPD6+BvcnsebOnWqjOcxWEMv3Bi5z7JlyxrO54jyTJoGVuZyP9tWmqSkZHm9hFORkWS8Wrtur6LRNvC8CJ8Vf5vPiNclXBZ5vrwv3I7HU3+blapEbQ1imuJ2XM9z4LPjveez4THV58jnzufyxhtvNPy+GngfuO3f/va3C9apx+G+48aNk3GsZOc5f/zxx3JZbcmxTV88pu294bUyzdg+ZwZWYPP4PH/uz3leAyuL+VyE2Mv9+dxs91PD0F69LH956jeWYD9/i8mmIaAlw1V1n7bHuqyT+H2/a7D8TJJUR7oK7ExCxIOVpS9LcJa84qZIV4F+KZf9/HylOUmVVjsj3XjjjXJfbsPON/nCCrn3vvukerOvAX2/hcJvn3zddbLEopXC/hSqKyJusFR2dl5RYakcJX73hhtukMs04VlCs1RnRWZTWJLTamHpy56P6ld9eT0sPVhpx99dvHiR9PUJf5elCUuDeHEddHHoPrBNm/UdpcLU/Vr4l7buBS0QugPsO8DOYzS36dN/L0ogN3ENLHUZz/tGyspK5UjJImHJON4Pdtbi9dEKO3TokCyNuR9LILpLK8S5s56Dbffs0cd4ns8nwjprWkoRdhPmvfr973/fYJ5v2bJZmPmjRYleI6ykM5ijWCYiI8hzpsXC67wYrJSle8h7xpKeliHvg3p8ngcreHk8Wib33HOPrJdgb0LeXz5bWjBMX96i9CwoKJT1Qax0pJXFwLRCmG74jNh/Qk0TKqwX47WzpG7ay5QuKNfRhWF9D+Ez5PWx9yTP9cknn5TPmR2k1PTFY95ww40N94bPhP1YuK0trASnpVtSXCyPSwuDaZlWFOt7rHVgloYK46bkCKtvw46deGjKLPGMdMgXaaFasWxaiiv6nsNP8dqgKXj54AYUV1vdhs4AExszbmtC81aUJNIkXrp8FUYMGywFg5WQl4K+Kd2vi/nWGpeGwsCWjebCepeePXvarT+7Wh5//HEsWbJEPtefYt7EqfAIMOGfSxajtPLCd0GulFYRhzAPE57vMw73b2vc01Dj0rz//vvST6YlwApcWh582ak1Ep9G52JwlwSM79UX765aCrOwWmouUofUHFpFHMi/R92IR3YsQ2nN+ZpcjUvDSjiayjTlKQyspVa762poXA5PzZqLnSePY9eJJJQrFf5XSovXOaiklOTjyV5jsOpsshKj8VPQbWEnIXNlGVasXCXrTjQ0msOPx49g1thxGNazF/afOIGauiu3IFrNciAfj56DB4RrUV5rrUDT0NBoG4Z0TcSEXv3w1opFqBYuBl/Oay6tZjmQfHMlHuw+XLMeNDTamLMFedhy/DCenDlHthjmFBWitr55AtGqHbU356QiwNUdrgb7XUc1NDRalz/9dwFGJvTEA5OmwrVJF/VLA/w/p6pNkxdJHogAAAAASUVORK5CYII=;" vertex="1" parent="d3MNBODYQ0l3beVv2zK8-27">
          <mxGeometry x="48.5" y="170" width="263" height="143" as="geometry" />
        </mxCell>
        <mxCell id="d3MNBODYQ0l3beVv2zK8-36" style="edgeStyle=orthogonalEdgeStyle;rounded=0;orthogonalLoop=1;jettySize=auto;html=1;" edge="1" parent="d3MNBODYQ0l3beVv2zK8-27" source="d3MNBODYQ0l3beVv2zK8-10" target="d3MNBODYQ0l3beVv2zK8-3">
          <mxGeometry relative="1" as="geometry" />
        </mxCell>
        <mxCell id="d3MNBODYQ0l3beVv2zK8-10" value="python request crontab" style="outlineConnect=0;dashed=0;verticalLabelPosition=bottom;verticalAlign=top;align=center;html=1;shape=mxgraph.aws3.android;fillColor=#FFD44F;gradientColor=none;" vertex="1" parent="d3MNBODYQ0l3beVv2zK8-27">
          <mxGeometry x="142.5" y="30" width="73.5" height="84" as="geometry" />
        </mxCell>
      </root>
    </mxGraphModel>
  </diagram>
</mxfile>
